<svg id="svg" version="1.1" xmlns="http://www.w3.org/2000/svg" xmlns:xlink="http://www.w3.org/1999/xlink" width="400" height="69.70715314450312" viewBox="0, 0, 400,69.70715314450312"><g id="svgg"><path id="path0" d="M22.326 4.088 C 19.809 5.970,17.487 7.718,17.167 7.971 C 16.846 8.225,16.066 8.804,15.433 9.258 C 8.627 14.139,2.268 22.433,0.998 28.083 C -1.339 38.480,0.898 46.710,7.998 53.842 C 10.931 56.788,18.173 60.500,20.986 60.500 C 21.120 60.500,21.160 59.360,21.128 56.481 L 21.083 52.463 20.083 52.093 C 15.896 50.546,11.969 47.253,10.031 43.665 C 5.317 34.937,8.546 24.643,18.536 16.553 C 18.969 16.203,20.019 15.347,20.870 14.651 C 21.721 13.955,23.392 12.690,24.583 11.839 C 25.775 10.989,26.804 10.208,26.870 10.105 C 26.952 9.977,27.065 9.970,27.223 10.083 C 27.351 10.175,28.047 10.657,28.769 11.154 C 38.013 17.518,43.274 23.191,45.395 29.083 C 48.713 38.303,44.221 48.059,34.917 51.842 L 33.417 52.452 33.372 56.339 C 33.347 58.478,33.389 60.289,33.464 60.364 C 33.798 60.698,39.053 58.803,41.500 57.467 C 48.191 53.811,53.272 46.153,54.163 38.380 C 55.451 27.139,50.075 17.437,37.404 8.135 C 33.498 5.267,31.003 3.424,30.250 2.849 C 28.545 1.548,27.271 0.667,27.095 0.667 C 26.989 0.667,24.843 2.206,22.326 4.088 M25.001 17.790 C 20.856 18.563,18.107 23.322,19.414 27.461 C 21.490 34.033,30.163 34.753,33.437 28.625 L 34.083 27.417 34.083 25.250 C 34.083 20.255,29.956 16.865,25.001 17.790 M12.167 33.568 C 12.167 37.316,12.181 37.500,12.482 37.500 C 15.438 37.500,19.402 40.981,21.723 45.613 C 23.493 49.148,23.509 49.268,23.614 59.792 L 23.701 68.500 27.350 68.500 L 31.000 68.500 31.001 61.958 C 31.005 48.166,31.570 45.687,35.780 41.013 C 37.303 39.322,40.551 37.500,42.042 37.500 C 42.311 37.500,42.333 37.199,42.333 33.583 L 42.333 29.667 41.863 29.667 C 38.895 29.667,34.833 31.273,32.257 33.465 C 30.740 34.757,27.819 38.348,27.468 39.352 C 27.249 39.982,27.122 39.959,26.772 39.226 C 24.472 34.403,18.811 30.496,13.042 29.749 L 12.167 29.635 12.167 33.568 M68.175 35.166 C 59.107 37.620,57.892 52.191,66.422 56.188 C 71.976 58.791,78.895 56.823,80.918 52.065 C 82.390 48.606,82.381 48.592,78.557 48.538 L 75.364 48.493 75.250 49.167 C 74.613 52.937,69.307 53.233,67.968 49.574 C 67.145 47.324,67.451 43.294,68.580 41.505 C 70.267 38.832,74.399 39.631,75.193 42.784 L 75.373 43.500 78.492 43.500 C 82.125 43.500,81.863 43.612,81.544 42.199 C 80.714 38.533,78.559 36.203,75.083 35.213 C 73.620 34.797,69.640 34.769,68.175 35.166 M83.707 46.042 L 83.750 56.750 86.708 56.796 L 89.667 56.841 89.667 46.087 L 89.667 35.333 86.665 35.333 L 83.664 35.333 83.707 46.042 M146.374 46.042 L 146.417 56.750 149.333 56.750 L 152.250 56.750 152.293 46.042 L 152.336 35.333 149.333 35.333 L 146.331 35.333 146.374 46.042 M202.500 38.889 C 202.500 42.961,202.529 42.867,201.548 42.004 C 198.863 39.640,194.350 40.705,192.537 44.129 C 190.584 47.819,191.162 53.401,193.725 55.594 C 196.291 57.791,200.033 57.770,202.225 55.547 L 203.000 54.761 203.000 55.797 L 203.000 56.833 205.667 56.833 L 208.333 56.833 208.333 46.083 L 208.333 35.333 205.417 35.333 L 202.500 35.333 202.500 38.889 M223.374 46.042 L 223.417 56.750 226.458 56.795 L 229.500 56.841 229.489 51.962 C 229.483 49.142,229.389 46.345,229.267 45.333 C 229.075 43.738,229.077 43.188,229.272 43.383 C 229.390 43.501,229.910 45.313,231.747 52.000 C 232.061 53.146,232.493 54.683,232.707 55.417 L 233.095 56.750 235.443 56.796 L 237.791 56.842 237.966 56.213 C 238.063 55.867,238.409 54.608,238.735 53.417 C 239.062 52.225,239.634 50.163,240.008 48.833 C 240.381 47.504,240.863 45.754,241.079 44.945 C 241.701 42.614,241.886 42.688,241.646 45.171 C 241.553 46.131,241.463 49.129,241.447 51.833 L 241.417 56.750 244.458 56.795 L 247.500 56.841 247.500 46.087 L 247.500 35.333 243.360 35.333 L 239.221 35.333 238.680 37.292 C 238.383 38.369,237.990 39.775,237.808 40.417 C 237.469 41.607,236.693 44.424,235.982 47.042 C 235.608 48.418,235.405 48.769,235.259 48.292 C 235.187 48.058,234.254 44.673,233.087 40.417 C 232.659 38.858,232.163 37.077,231.983 36.458 L 231.657 35.333 227.494 35.333 L 223.331 35.333 223.374 46.042 M360.040 46.042 L 360.083 56.750 363.042 56.796 L 366.000 56.841 366.000 54.620 L 366.000 52.399 366.550 51.866 C 367.278 51.160,367.149 51.060,368.509 53.375 C 369.168 54.498,369.905 55.735,370.146 56.125 L 370.583 56.833 374.125 56.833 C 376.073 56.833,377.667 56.793,377.667 56.745 C 377.667 56.696,376.279 54.585,374.583 52.054 C 372.887 49.523,371.500 47.364,371.500 47.256 C 371.500 47.148,372.696 45.780,374.159 44.216 C 375.621 42.653,376.771 41.327,376.714 41.270 C 376.658 41.213,375.150 41.167,373.363 41.167 L 370.115 41.167 369.516 41.819 C 369.186 42.179,368.354 43.187,367.667 44.061 C 366.979 44.935,366.323 45.689,366.208 45.736 C 366.044 45.804,366.000 44.709,366.000 40.578 L 366.000 35.333 362.999 35.333 L 359.998 35.333 360.040 46.042 M269.500 38.746 L 269.500 41.167 268.417 41.167 L 267.333 41.167 267.333 42.917 L 267.333 44.667 268.417 44.667 L 269.500 44.667 269.500 48.977 C 269.500 56.617,270.042 57.219,276.583 56.845 L 278.250 56.750 278.297 54.625 L 278.343 52.500 277.583 52.500 C 276.567 52.500,275.704 52.125,275.580 51.629 C 275.458 51.144,275.453 50.921,275.479 47.458 L 275.500 44.667 276.917 44.667 L 278.333 44.667 278.333 42.923 L 278.333 41.180 276.899 41.131 L 275.464 41.083 275.440 38.750 L 275.417 36.417 272.458 36.371 L 269.500 36.326 269.500 38.746 M395.728 41.061 C 395.048 41.742,395.000 41.849,395.000 42.691 C 395.000 45.174,397.787 46.192,399.407 44.300 C 401.478 41.880,397.984 38.805,395.728 41.061 M399.010 41.093 C 401.155 43.148,398.208 46.391,396.005 44.402 C 394.978 43.474,394.897 42.377,395.778 41.330 C 396.616 40.335,398.105 40.225,399.010 41.093 M98.000 40.990 C 94.562 41.872,92.379 43.969,91.730 47.013 C 90.315 53.655,95.334 58.275,102.591 57.011 C 105.402 56.521,108.500 54.124,108.500 52.438 C 108.500 51.927,103.062 52.042,102.654 52.562 C 101.241 54.358,97.858 53.329,97.547 51.008 L 97.457 50.338 103.270 50.294 L 109.083 50.250 109.030 49.167 C 108.748 43.392,103.578 39.559,98.000 40.990 M133.750 40.923 C 125.005 42.871,124.395 54.690,132.925 56.912 C 137.495 58.102,143.099 55.900,143.930 52.588 L 144.036 52.167 141.194 52.167 C 138.611 52.167,138.332 52.195,138.134 52.477 C 136.775 54.416,133.225 53.343,132.969 50.917 L 132.917 50.417 138.708 50.373 L 144.500 50.329 144.497 49.456 C 144.478 43.781,139.317 39.683,133.750 40.923 M160.969 40.836 C 157.003 41.462,155.006 42.981,155.001 45.375 L 155.000 45.833 157.837 45.833 L 160.675 45.833 160.830 45.425 C 161.352 44.054,164.588 44.049,164.932 45.420 C 165.193 46.458,164.161 46.993,161.083 47.417 C 155.711 48.156,154.014 49.381,154.004 52.527 C 153.989 56.964,160.296 58.887,164.453 55.713 C 165.219 55.129,165.207 55.124,165.462 56.167 L 165.604 56.750 168.719 56.795 C 170.432 56.820,171.833 56.794,171.833 56.736 C 171.833 56.679,171.654 56.418,171.435 56.158 L 171.037 55.685 170.963 50.217 C 170.871 43.456,170.667 42.695,168.667 41.673 C 167.203 40.925,163.176 40.487,160.969 40.836 M182.542 40.914 C 181.213 41.287,180.486 41.718,179.615 42.650 C 178.747 43.578,178.700 43.555,178.630 42.167 L 178.583 41.250 175.958 41.204 L 173.333 41.158 173.333 48.996 L 173.333 56.833 176.236 56.833 L 179.140 56.833 179.198 52.125 C 179.273 46.124,179.450 45.638,181.564 45.608 C 183.669 45.577,183.833 46.044,183.833 52.067 L 183.833 56.833 186.833 56.833 L 189.833 56.833 189.827 51.458 C 189.821 45.616,189.710 44.589,188.946 43.286 C 187.780 41.295,184.934 40.241,182.542 40.914 M256.167 40.905 C 250.876 42.081,248.190 46.488,249.577 51.716 C 251.252 58.028,262.209 59.324,265.708 53.624 C 266.645 52.099,266.746 52.167,263.529 52.167 C 260.725 52.167,260.725 52.167,260.321 52.599 C 258.709 54.324,255.487 53.298,255.298 51.000 L 255.250 50.417 261.042 50.373 L 266.833 50.329 266.833 49.574 C 266.833 43.899,261.650 39.686,256.167 40.905 M289.564 40.825 C 288.041 41.188,286.935 42.138,286.158 43.750 C 285.925 44.234,285.914 44.202,285.834 42.750 L 285.750 41.250 283.083 41.250 L 280.417 41.250 280.417 49.000 L 280.417 56.750 283.357 56.795 L 286.297 56.841 286.374 53.212 C 286.489 47.778,287.143 46.701,290.231 46.860 L 291.334 46.917 291.334 43.893 C 291.333 40.389,291.340 40.401,289.564 40.825 M298.444 40.928 C 293.301 42.079,290.687 46.747,292.290 51.919 C 294.303 58.414,305.287 59.203,308.314 53.070 C 311.680 46.252,305.981 39.241,298.444 40.928 M319.667 40.904 C 318.401 41.254,317.692 41.672,316.930 42.520 C 316.006 43.548,316.000 43.547,316.000 42.261 L 316.000 41.188 313.375 41.219 L 310.750 41.250 310.707 51.708 L 310.664 62.167 313.665 62.167 L 316.667 62.167 316.667 58.833 C 316.667 57.000,316.706 55.500,316.755 55.500 C 316.803 55.500,317.215 55.794,317.669 56.153 C 320.534 58.418,325.248 56.940,326.930 53.250 C 329.856 46.834,325.430 39.311,319.667 40.904 M335.083 40.923 C 331.502 41.593,330.049 42.713,329.729 45.050 L 329.621 45.833 332.519 45.830 L 335.417 45.826 335.667 45.288 C 336.364 43.787,339.500 44.162,339.500 45.746 C 339.500 46.665,338.474 47.088,335.250 47.495 C 329.992 48.159,328.060 50.022,328.821 53.692 C 329.571 57.304,335.510 58.469,339.120 55.713 C 339.907 55.112,339.931 55.124,340.156 56.226 L 340.263 56.750 343.298 56.795 C 344.968 56.820,346.333 56.783,346.332 56.712 C 346.332 56.641,346.182 56.358,346.000 56.083 C 345.689 55.613,345.669 55.293,345.668 50.700 C 345.666 44.227,345.427 43.137,343.748 41.966 C 342.237 40.913,337.918 40.393,335.083 40.923 M356.992 40.894 C 355.519 41.291,354.533 42.146,353.880 43.592 L 353.583 44.250 353.535 42.708 L 353.487 41.167 350.744 41.167 L 348.000 41.167 348.000 49.004 L 348.000 56.841 350.958 56.796 L 353.917 56.750 354.007 53.083 C 354.103 49.228,354.176 48.836,354.987 47.805 C 355.508 47.143,356.586 46.792,357.897 46.860 L 359.001 46.917 359.000 43.894 C 359.000 40.332,359.011 40.349,356.992 40.894 M384.417 40.773 C 380.020 41.672,378.500 42.971,378.500 45.833 C 378.500 48.783,380.042 49.890,385.698 51.000 C 386.917 51.239,387.733 51.778,387.804 52.391 C 388.035 54.381,384.185 54.480,383.749 52.495 L 383.640 52.000 380.820 52.000 C 377.671 52.000,377.844 51.914,378.249 53.278 C 379.024 55.888,381.520 57.170,385.814 57.164 C 390.840 57.156,393.610 55.423,393.799 52.170 C 393.969 49.237,392.223 47.800,387.196 46.735 C 384.934 46.256,384.167 45.858,384.167 45.163 C 384.167 43.786,387.314 43.793,387.751 45.171 C 387.850 45.481,388.014 45.500,390.530 45.500 L 393.204 45.500 393.088 44.883 C 392.807 43.387,391.691 42.070,390.230 41.513 C 388.562 40.877,385.696 40.512,384.417 40.773 M109.500 41.288 C 109.500 41.359,110.219 43.517,111.096 46.083 C 111.974 48.650,113.153 52.119,113.716 53.792 L 114.740 56.833 118.092 56.833 L 121.444 56.833 123.975 49.208 C 125.367 45.015,126.505 41.490,126.503 41.375 C 126.501 41.217,125.825 41.167,123.687 41.167 L 120.874 41.167 120.620 42.125 C 120.481 42.652,120.014 44.396,119.583 46.000 C 119.153 47.604,118.686 49.348,118.546 49.875 C 118.244 51.017,118.075 51.076,117.832 50.125 C 117.733 49.735,117.434 48.629,117.169 47.667 C 116.903 46.704,116.532 45.317,116.344 44.583 C 116.156 43.850,115.860 42.800,115.687 42.250 L 115.371 41.250 112.436 41.204 C 110.821 41.179,109.500 41.217,109.500 41.288 M396.708 41.452 C 396.453 41.545,396.415 43.928,396.667 44.083 C 396.764 44.144,396.833 43.972,396.833 43.671 C 396.833 43.094,397.115 42.909,397.750 43.069 C 398.051 43.144,398.167 43.285,398.167 43.577 C 398.167 43.799,398.242 44.027,398.333 44.083 C 398.570 44.230,398.543 43.277,398.304 43.037 C 398.154 42.887,398.173 42.769,398.387 42.532 C 399.022 41.831,397.808 41.050,396.708 41.452 M398.137 42.125 C 398.176 42.399,398.076 42.543,397.763 42.662 C 397.153 42.894,396.833 42.713,396.833 42.139 C 396.833 41.481,398.043 41.468,398.137 42.125 M101.586 44.762 C 102.251 45.078,103.001 46.107,103.049 46.769 L 103.083 47.250 100.333 47.250 L 97.583 47.250 97.604 46.610 C 97.656 44.965,99.859 43.943,101.586 44.762 M136.967 44.735 C 137.882 45.213,138.917 46.861,138.539 47.239 C 138.391 47.387,133.030 47.349,132.937 47.199 C 132.774 46.936,133.145 45.794,133.528 45.379 C 134.303 44.538,135.987 44.223,136.967 44.735 M259.513 44.879 C 260.242 45.370,260.833 46.257,260.833 46.858 L 260.833 47.333 258.078 47.333 C 255.026 47.333,254.981 47.317,255.321 46.287 C 255.851 44.682,258.100 43.927,259.513 44.879 M301.803 45.172 C 303.703 46.330,303.765 51.554,301.893 52.781 C 299.845 54.122,297.917 52.289,297.917 49.000 C 297.917 45.699,299.733 43.910,301.803 45.172 M320.452 45.661 C 322.405 46.852,322.192 51.263,320.131 52.308 C 318.147 53.312,316.617 51.752,316.625 48.734 C 316.632 46.008,318.526 44.487,320.452 45.661 M201.285 45.827 C 204.436 47.748,201.942 54.277,198.698 52.600 C 196.181 51.298,197.244 45.501,200.000 45.501 C 200.451 45.501,200.963 45.631,201.285 45.827 M164.960 50.906 C 164.778 53.172,163.020 54.403,161.107 53.604 C 159.805 53.060,160.001 51.349,161.417 50.894 C 162.649 50.497,164.749 49.868,164.898 49.851 C 164.979 49.841,165.007 50.316,164.960 50.906 M339.580 50.893 C 339.276 53.198,337.748 54.363,335.934 53.673 C 334.034 52.951,334.621 51.137,336.924 50.611 C 337.562 50.466,338.383 50.240,338.750 50.111 C 339.629 49.800,339.714 49.879,339.580 50.893 " stroke="none" fill="#16552d" fill-rule="evenodd"></path><path id="path1" d="M0.025 16.042 C 0.039 24.865,0.079 31.858,0.115 31.583 C 0.996 24.794,5.085 17.905,11.695 12.074 C 13.395 10.574,26.848 0.333,27.118 0.333 C 27.216 0.333,27.476 0.522,30.227 2.596 C 30.947 3.139,31.697 3.694,31.893 3.830 C 32.089 3.965,32.705 4.415,33.261 4.830 C 33.817 5.244,35.495 6.483,36.991 7.583 C 41.404 10.829,44.674 13.703,46.755 16.167 C 50.527 20.632,52.983 25.035,53.727 28.667 C 54.467 32.280,54.721 36.351,54.342 38.514 C 53.786 41.681,53.567 42.594,53.003 44.096 C 51.050 49.297,46.951 54.461,42.780 56.975 C 40.348 58.441,35.806 60.282,33.875 60.585 L 33.167 60.696 33.167 56.445 L 33.167 52.193 33.677 52.081 C 36.689 51.420,41.951 47.387,43.690 44.408 C 48.297 36.514,46.649 27.463,39.259 20.075 C 34.833 15.651,27.310 9.881,26.760 10.489 C 26.614 10.651,25.954 11.151,25.294 11.600 C 21.930 13.889,18.207 16.971,15.246 19.917 C 7.731 27.392,6.027 36.720,10.748 44.541 C 12.486 47.420,17.296 51.120,20.550 52.080 L 21.250 52.287 21.295 56.496 L 21.339 60.705 20.545 60.587 C 18.432 60.272,14.029 58.493,11.500 56.933 C 5.762 53.393,1.002 45.932,0.115 39.083 C 0.079 38.808,0.039 45.577,0.025 54.125 L 0.000 69.667 200.000 69.667 L 400.000 69.667 400.000 56.795 L 400.000 43.924 399.491 44.541 C 397.933 46.431,394.833 45.239,394.833 42.750 C 394.833 40.130,398.166 39.029,399.625 41.167 L 400.000 41.716 400.000 20.858 L 400.000 0.000 200.000 0.000 L 0.000 0.000 0.025 16.042 M28.633 17.752 C 33.936 19.003,36.232 25.692,32.827 29.969 C 27.792 36.292,17.799 32.017,18.984 24.047 C 19.660 19.502,24.012 16.663,28.633 17.752 M42.500 33.477 L 42.500 37.621 41.622 37.797 C 37.402 38.644,33.413 42.935,31.903 48.250 C 31.480 49.739,31.476 49.816,31.307 59.167 C 31.214 64.346,31.125 68.594,31.111 68.606 C 31.096 68.619,29.358 68.657,27.250 68.690 L 23.417 68.750 23.321 59.667 C 23.204 48.539,23.203 48.535,20.798 44.291 C 18.838 40.833,15.550 38.118,12.881 37.755 L 12.012 37.637 11.965 34.110 C 11.900 29.327,11.874 29.500,12.647 29.500 C 17.377 29.500,23.448 33.371,26.499 38.332 L 27.127 39.353 27.511 38.732 C 27.891 38.117,29.494 36.051,30.321 35.110 C 33.322 31.695,37.633 29.606,42.208 29.350 C 42.479 29.335,42.500 29.636,42.500 33.477 M74.734 34.919 C 78.823 35.984,81.833 39.441,81.833 43.069 L 81.833 43.674 78.477 43.628 L 75.121 43.583 74.887 42.667 C 74.251 40.183,70.886 39.207,69.227 41.026 C 66.692 43.803,67.305 50.531,70.203 51.741 C 72.457 52.683,74.482 51.456,75.072 48.792 L 75.173 48.333 78.609 48.333 L 82.046 48.333 81.936 49.265 C 81.321 54.498,77.145 57.672,71.154 57.462 C 64.405 57.225,60.617 53.134,60.617 46.083 C 60.617 39.670,63.981 35.441,69.750 34.600 C 70.664 34.467,73.758 34.665,74.734 34.919 M89.750 46.028 L 89.750 56.917 86.625 56.962 L 83.500 57.007 83.500 46.101 C 83.500 39.007,83.558 35.175,83.666 35.139 C 83.757 35.108,85.164 35.096,86.791 35.111 L 89.750 35.140 89.750 46.028 M152.460 46.084 L 152.502 57.007 149.376 56.962 L 146.250 56.917 146.207 46.167 C 146.183 40.254,146.192 35.342,146.227 35.250 C 146.267 35.145,147.429 35.098,149.354 35.122 L 152.417 35.161 152.460 46.084 M208.460 35.151 C 208.626 35.164,208.660 37.403,208.626 46.042 L 208.583 56.917 205.750 56.917 L 202.917 56.917 202.833 56.112 L 202.750 55.307 202.250 55.836 C 199.645 58.590,194.192 57.660,192.334 54.146 C 190.070 49.863,191.161 43.801,194.607 41.519 C 196.563 40.224,199.819 40.300,201.542 41.681 L 202.167 42.182 202.167 38.791 C 202.167 36.863,202.235 35.332,202.326 35.242 C 202.447 35.120,207.094 35.052,208.460 35.151 M231.784 35.228 C 231.877 35.322,232.631 37.963,234.239 43.833 C 234.553 44.979,234.953 46.404,235.128 46.999 L 235.446 48.081 235.714 47.249 C 235.860 46.791,236.220 45.517,236.513 44.417 C 236.806 43.317,237.296 41.517,237.601 40.417 C 237.907 39.317,238.355 37.704,238.596 36.833 C 238.837 35.962,239.055 35.229,239.079 35.203 C 239.103 35.176,241.026 35.155,243.353 35.155 L 247.583 35.154 247.583 46.035 L 247.583 56.917 244.417 56.917 L 241.250 56.917 241.267 51.107 C 241.276 47.912,241.227 45.399,241.158 45.524 C 241.089 45.648,240.754 46.800,240.413 48.083 C 239.128 52.918,238.093 56.548,237.918 56.831 C 237.791 57.037,233.059 57.064,232.933 56.860 C 232.885 56.782,232.607 55.864,232.316 54.818 C 232.024 53.772,231.533 52.017,231.223 50.917 C 230.914 49.817,230.388 47.884,230.055 46.623 C 229.721 45.361,229.433 44.349,229.414 44.373 C 229.395 44.397,229.446 45.436,229.526 46.682 C 229.607 47.927,229.653 50.740,229.628 52.932 L 229.583 56.917 226.417 56.917 L 223.250 56.917 223.207 46.167 C 223.183 40.254,223.192 35.342,223.227 35.250 C 223.288 35.089,231.624 35.068,231.784 35.228 M366.171 35.253 C 366.270 35.314,366.335 37.274,366.338 40.302 L 366.342 45.250 366.880 44.656 C 367.175 44.330,367.974 43.374,368.656 42.531 L 369.896 41.000 373.531 41.000 C 375.598 41.000,377.167 41.065,377.167 41.151 C 377.167 41.288,375.285 43.350,372.850 45.882 C 371.596 47.186,371.585 47.215,372.070 47.953 C 373.589 50.262,377.229 55.680,377.575 56.147 C 378.193 56.982,378.120 57.000,374.198 56.997 C 370.192 56.995,370.394 57.041,369.807 56.000 C 369.574 55.587,369.098 54.762,368.749 54.167 C 368.400 53.571,367.914 52.725,367.668 52.287 L 367.221 51.491 366.777 51.935 C 366.341 52.371,366.333 52.418,366.333 54.588 C 366.333 57.246,366.692 57.000,362.820 57.000 L 359.833 57.000 359.833 46.097 C 359.833 39.020,359.891 35.175,359.999 35.139 C 360.287 35.042,366.001 35.148,366.171 35.253 M275.542 36.165 C 275.610 36.166,275.667 37.254,275.667 38.583 L 275.667 41.000 277.089 41.000 L 278.511 41.000 278.464 42.937 L 278.417 44.874 277.083 44.896 L 275.750 44.917 275.705 48.149 C 275.649 52.136,275.646 52.129,277.291 52.201 L 278.417 52.250 278.463 54.606 L 278.509 56.963 276.629 57.033 C 269.859 57.284,269.362 56.776,269.189 49.417 L 269.083 44.917 268.036 44.867 L 266.989 44.817 267.036 42.950 L 267.083 41.083 268.208 41.034 L 269.333 40.985 269.333 38.603 C 269.333 37.294,269.364 36.191,269.403 36.153 C 269.441 36.115,270.809 36.102,272.444 36.124 C 274.079 36.146,275.473 36.165,275.542 36.165 M102.667 40.863 C 106.411 41.560,109.316 45.381,109.330 49.625 L 109.333 50.500 103.487 50.500 L 97.640 50.500 97.756 51.042 C 98.240 53.306,101.110 54.146,102.468 52.420 L 102.798 52.000 105.816 52.000 C 107.475 52.000,108.833 52.066,108.833 52.146 C 108.833 53.201,106.991 55.495,105.563 56.217 C 98.950 59.563,91.650 56.201,91.368 49.679 C 91.093 43.310,95.856 39.594,102.667 40.863 M138.417 40.938 C 141.993 41.804,144.536 45.198,144.706 49.333 L 144.750 50.417 138.958 50.460 C 132.428 50.510,132.797 50.421,133.446 51.789 C 134.247 53.476,136.954 53.863,137.896 52.425 L 138.174 52.000 141.254 52.000 C 142.948 52.000,144.333 52.044,144.333 52.098 C 144.333 53.738,141.792 56.127,139.176 56.946 C 132.126 59.153,125.851 54.555,126.798 47.873 C 127.561 42.484,132.537 39.514,138.417 40.938 M167.037 40.924 C 170.620 41.637,171.056 42.599,171.167 50.028 C 171.249 55.597,171.253 55.644,171.642 56.170 C 172.229 56.962,172.035 57.012,168.573 56.962 C 165.567 56.919,165.419 56.901,165.371 56.583 C 165.343 56.400,165.283 56.075,165.237 55.860 L 165.153 55.471 164.574 55.912 C 160.983 58.651,155.108 57.632,154.079 54.092 C 152.950 50.209,155.150 47.926,160.667 47.256 C 164.109 46.839,164.729 46.581,164.634 45.611 C 164.502 44.258,161.162 44.363,160.968 45.726 C 160.899 46.208,154.953 46.386,154.771 45.911 C 154.511 45.233,155.294 43.229,156.110 42.485 C 158.020 40.743,162.739 40.069,167.037 40.924 M185.124 40.667 C 187.555 40.983,189.022 42.268,189.750 44.717 C 189.951 45.396,190.000 46.677,190.000 51.284 L 190.000 57.007 186.875 56.962 L 183.750 56.917 183.667 51.970 C 183.588 47.283,183.565 46.999,183.235 46.554 C 182.433 45.471,180.744 45.471,179.935 46.554 C 179.601 47.000,179.579 47.268,179.500 51.970 L 179.417 56.917 176.250 56.917 L 173.083 56.917 173.083 49.000 L 173.083 41.083 175.958 41.038 L 178.833 40.992 178.833 42.069 L 178.833 43.145 179.683 42.318 C 180.728 41.299,181.561 40.862,182.798 40.680 C 183.322 40.603,183.787 40.534,183.833 40.525 C 183.879 40.517,184.460 40.581,185.124 40.667 M260.720 40.931 C 264.317 41.802,266.839 45.190,267.037 49.417 L 267.083 50.417 261.292 50.460 C 254.787 50.510,255.183 50.419,255.732 51.733 C 256.428 53.398,258.773 53.867,260.015 52.589 L 260.583 52.004 263.542 52.002 C 266.854 52.000,266.728 51.941,266.162 53.221 C 263.670 58.856,252.995 58.875,250.004 53.250 C 246.258 46.207,252.566 38.955,260.720 40.931 M291.292 40.664 C 291.451 40.666,291.500 41.433,291.500 43.935 L 291.500 47.204 290.875 47.078 C 287.598 46.421,286.505 48.099,286.502 53.795 L 286.500 57.007 283.375 56.962 L 280.250 56.917 280.207 48.958 L 280.163 41.000 283.082 41.000 L 286.000 41.000 286.003 42.292 L 286.006 43.583 286.480 42.829 C 287.468 41.257,289.239 40.333,290.750 40.603 C 290.933 40.635,291.177 40.663,291.292 40.664 M303.472 40.935 C 308.137 41.967,310.592 46.938,308.953 52.033 C 306.508 59.637,293.557 59.144,291.913 51.385 C 290.365 44.080,295.737 39.223,303.472 40.935 M323.277 40.931 C 326.707 41.873,328.612 46.282,327.742 51.268 C 326.865 56.299,321.627 59.060,317.804 56.507 L 316.840 55.863 316.795 59.057 L 316.750 62.250 313.625 62.295 L 310.500 62.341 310.500 51.666 L 310.500 40.992 313.375 41.038 L 316.250 41.083 316.301 41.887 L 316.353 42.691 317.103 42.000 C 318.618 40.603,320.744 40.235,323.277 40.931 M341.750 40.933 C 345.276 41.633,345.830 43.010,345.832 51.086 L 345.833 55.423 346.267 56.061 C 346.889 56.977,346.768 57.013,343.238 56.962 L 340.083 56.917 339.910 56.199 L 339.737 55.481 339.104 55.984 C 335.181 59.101,328.760 57.249,328.533 52.934 C 328.341 49.260,330.031 47.939,335.916 47.166 C 338.847 46.781,339.930 46.224,339.399 45.375 C 338.646 44.169,335.500 44.596,335.500 45.904 C 335.500 46.133,335.121 46.167,332.500 46.167 L 329.500 46.167 329.500 45.438 C 329.500 41.594,334.964 39.585,341.750 40.933 M358.847 40.667 C 359.151 40.667,359.167 40.824,359.167 43.935 L 359.167 47.204 358.542 47.078 C 356.768 46.723,355.368 47.319,354.613 48.750 C 354.295 49.353,354.253 49.774,354.172 53.167 L 354.083 56.917 351.000 56.917 L 347.917 56.917 347.873 48.954 L 347.830 40.992 350.707 41.038 L 353.583 41.083 353.679 42.250 C 353.731 42.892,353.788 43.320,353.804 43.201 C 353.964 42.030,357.045 40.253,358.305 40.605 C 358.427 40.639,358.671 40.667,358.847 40.667 M388.833 40.866 C 391.334 41.339,393.068 43.014,393.371 45.250 C 393.415 45.571,393.308 45.585,390.583 45.627 L 387.750 45.671 387.473 45.180 C 386.914 44.192,385.434 43.889,384.646 44.602 C 383.755 45.408,384.401 45.838,387.782 46.690 C 393.537 48.142,395.290 50.365,393.543 54.000 C 390.960 59.372,378.555 58.323,377.887 52.676 L 377.786 51.826 380.851 51.871 L 383.917 51.917 383.969 52.369 C 384.164 54.062,387.654 54.166,387.664 52.479 C 387.668 51.821,387.455 51.723,384.242 50.903 C 379.716 49.747,378.922 49.183,378.339 46.708 C 377.330 42.420,382.334 39.634,388.833 40.866 M396.533 40.937 C 395.172 41.629,395.148 43.884,396.495 44.581 C 397.935 45.326,399.496 44.352,399.499 42.706 C 399.501 41.231,397.868 40.257,396.533 40.937 M115.816 41.958 C 115.927 42.485,116.087 43.067,116.171 43.250 C 116.256 43.433,116.553 44.483,116.832 45.583 C 117.639 48.768,118.106 50.232,118.244 50.009 C 118.358 49.825,118.943 47.697,120.148 43.083 C 120.744 40.801,120.391 41.000,123.843 41.000 C 127.211 41.000,127.112 40.953,126.517 42.264 C 126.347 42.639,126.002 43.651,125.752 44.514 C 125.501 45.377,125.200 46.308,125.083 46.583 C 124.967 46.858,124.175 49.221,123.324 51.833 C 122.473 54.446,121.704 56.679,121.615 56.795 C 121.492 56.957,120.643 56.996,118.019 56.962 L 114.583 56.917 113.954 55.083 C 113.607 54.075,113.031 52.387,112.672 51.333 C 110.461 44.828,109.378 41.706,109.270 41.532 C 108.986 41.073,109.424 41.000,112.483 41.000 L 115.614 41.000 115.816 41.958 M398.384 41.408 C 398.761 41.785,398.740 44.372,398.360 44.299 C 398.208 44.270,398.057 44.060,398.025 43.832 C 397.910 43.020,397.211 42.923,397.136 43.708 C 397.096 44.123,396.996 44.262,396.708 44.303 C 396.342 44.355,396.333 44.320,396.333 42.762 L 396.333 41.167 397.238 41.167 C 397.806 41.167,398.233 41.257,398.384 41.408 M397.167 42.178 C 397.167 42.440,397.256 42.510,397.540 42.470 C 398.094 42.391,398.143 41.833,397.596 41.833 C 397.273 41.833,397.167 41.919,397.167 42.178 M98.992 44.930 C 98.354 45.195,97.940 45.762,97.756 46.625 L 97.640 47.167 100.237 47.167 C 102.819 47.167,102.833 47.165,102.833 46.792 C 102.830 45.288,100.661 44.236,98.992 44.930 M134.369 44.998 C 133.644 45.327,133.167 46.054,133.167 46.828 C 133.167 47.154,133.264 47.167,135.750 47.167 C 138.645 47.167,138.606 47.187,137.998 45.996 C 137.374 44.772,135.812 44.343,134.369 44.998 M256.702 44.998 C 255.977 45.327,255.500 46.054,255.500 46.828 C 255.500 47.154,255.598 47.167,258.083 47.167 C 260.950 47.167,260.867 47.208,260.335 46.036 C 259.772 44.796,258.162 44.336,256.702 44.998 M299.736 45.228 C 297.407 46.282,297.554 52.054,299.930 52.838 C 301.862 53.475,303.094 51.760,302.970 48.609 C 302.858 45.786,301.542 44.411,299.736 45.228 M317.833 45.958 C 315.845 47.761,316.700 52.335,319.025 52.333 C 320.968 52.331,322.133 50.023,321.423 47.581 C 320.848 45.604,319.097 44.812,317.833 45.958 M198.634 46.169 C 197.231 47.325,197.177 51.344,198.552 52.245 C 200.933 53.805,203.120 50.875,202.180 47.384 C 201.745 45.768,199.890 45.133,198.634 46.169 M163.333 50.518 C 162.737 50.692,162.045 50.880,161.794 50.937 C 160.246 51.289,160.032 53.105,161.492 53.498 C 163.277 53.979,164.414 53.064,164.753 50.875 C 164.880 50.053,164.907 50.060,163.333 50.518 M338.500 50.368 C 335.393 51.260,335.167 51.395,335.167 52.355 C 335.167 53.464,337.087 54.027,338.256 53.261 C 338.786 52.914,339.496 51.454,339.498 50.708 C 339.500 50.123,339.433 50.100,338.500 50.368 " stroke="none" fill="#fbfbfb" fill-rule="evenodd"></path><path id="path2" d="M26.812 10.292 C 26.604 10.557,26.610 10.562,26.880 10.351 C 27.140 10.146,27.231 10.166,27.630 10.517 L 28.083 10.917 27.679 10.458 C 27.205 9.920,27.117 9.903,26.812 10.292 M10.740 13.042 L 10.250 13.583 10.792 13.094 C 11.090 12.825,11.333 12.581,11.333 12.552 C 11.333 12.423,11.196 12.537,10.740 13.042 M8.575 15.208 L 7.917 15.917 8.625 15.258 C 9.015 14.895,9.333 14.577,9.333 14.550 C 9.333 14.423,9.188 14.550,8.575 15.208 M26.208 17.619 C 26.460 17.658,26.873 17.658,27.125 17.619 C 27.377 17.581,27.171 17.550,26.667 17.550 C 26.162 17.550,25.956 17.581,26.208 17.619 M38.083 18.833 C 38.535 19.292,38.942 19.667,38.987 19.667 C 39.033 19.667,38.701 19.292,38.250 18.833 C 37.799 18.375,37.392 18.000,37.346 18.000 C 37.300 18.000,37.632 18.375,38.083 18.833 M15.000 19.917 C 14.317 20.604,13.796 21.167,13.842 21.167 C 13.888 21.167,14.484 20.604,15.167 19.917 C 15.850 19.229,16.371 18.667,16.325 18.667 C 16.279 18.667,15.683 19.229,15.000 19.917 M21.075 19.875 L 20.417 20.583 21.125 19.925 C 21.515 19.562,21.833 19.243,21.833 19.216 C 21.833 19.090,21.688 19.216,21.075 19.875 M12.105 29.632 C 12.060 29.704,12.281 29.734,12.595 29.697 C 12.909 29.660,13.167 29.601,13.167 29.565 C 13.167 29.440,12.186 29.501,12.105 29.632 M21.167 30.750 C 21.478 31.071,21.770 31.333,21.815 31.333 C 21.861 31.333,21.644 31.071,21.333 30.750 C 21.022 30.429,20.730 30.167,20.685 30.167 C 20.639 30.167,20.856 30.429,21.167 30.750 M12.070 34.167 C 12.070 36.046,12.095 36.815,12.124 35.875 C 12.154 34.935,12.154 33.398,12.124 32.458 C 12.095 31.519,12.070 32.287,12.070 34.167 M42.401 34.917 C 42.401 36.383,42.427 36.961,42.457 36.200 C 42.488 35.440,42.488 34.240,42.457 33.534 C 42.426 32.828,42.401 33.450,42.401 34.917 M26.208 32.953 C 26.460 32.991,26.873 32.991,27.125 32.953 C 27.377 32.915,27.171 32.883,26.667 32.883 C 26.162 32.883,25.956 32.915,26.208 32.953 M22.500 33.917 C 22.811 34.237,23.103 34.500,23.149 34.500 C 23.195 34.500,22.978 34.237,22.667 33.917 C 22.356 33.596,22.064 33.333,22.018 33.333 C 21.972 33.333,22.189 33.596,22.500 33.917 M31.167 34.250 C 30.762 34.662,30.468 35.000,30.514 35.000 C 30.560 35.000,30.928 34.662,31.333 34.250 C 31.738 33.837,32.032 33.500,31.986 33.500 C 31.940 33.500,31.572 33.837,31.167 34.250 M46.387 35.167 C 46.387 35.762,46.417 36.006,46.454 35.708 C 46.491 35.410,46.491 34.923,46.454 34.625 C 46.417 34.327,46.387 34.571,46.387 35.167 M54.387 35.333 C 54.387 35.929,54.417 36.173,54.454 35.875 C 54.491 35.577,54.491 35.090,54.454 34.792 C 54.417 34.494,54.387 34.737,54.387 35.333 M24.000 35.417 C 24.311 35.737,24.603 36.000,24.649 36.000 C 24.695 36.000,24.478 35.737,24.167 35.417 C 23.856 35.096,23.564 34.833,23.518 34.833 C 23.472 34.833,23.689 35.096,24.000 35.417 M89.745 46.000 C 89.745 51.913,89.766 54.331,89.792 51.375 C 89.817 48.419,89.817 43.581,89.792 40.625 C 89.766 37.669,89.745 40.087,89.745 46.000 M247.579 46.083 C 247.579 52.042,247.599 54.455,247.625 51.446 C 247.650 48.437,247.650 43.562,247.625 40.613 C 247.599 37.663,247.579 40.125,247.579 46.083 M269.370 38.617 L 269.333 40.984 268.292 41.043 L 267.250 41.102 268.297 41.135 C 269.580 41.174,269.523 41.304,269.458 38.492 L 269.406 36.250 269.370 38.617 M109.444 41.111 C 109.383 41.172,109.334 41.303,109.336 41.403 C 109.337 41.513,109.389 41.504,109.468 41.379 C 109.560 41.234,110.439 41.160,112.507 41.125 L 115.417 41.075 112.486 41.037 C 110.874 41.017,109.506 41.050,109.444 41.111 M122.200 41.124 C 122.997 41.154,124.347 41.155,125.200 41.124 C 126.052 41.094,125.400 41.069,123.750 41.069 C 122.100 41.069,121.402 41.093,122.200 41.124 M174.625 41.124 C 175.381 41.155,176.619 41.155,177.375 41.124 C 178.131 41.093,177.512 41.068,176.000 41.068 C 174.487 41.068,173.869 41.093,174.625 41.124 M276.292 41.122 C 276.681 41.157,277.319 41.157,277.708 41.122 C 278.098 41.087,277.779 41.058,277.000 41.058 C 276.221 41.058,275.902 41.087,276.292 41.122 M283.083 41.123 L 285.833 41.175 285.833 42.504 C 285.833 43.235,285.890 43.833,285.958 43.834 C 286.027 43.834,286.046 43.215,286.000 42.459 L 285.917 41.083 283.125 41.077 L 280.333 41.071 283.083 41.123 M310.609 41.125 C 310.567 41.194,311.793 41.250,313.333 41.250 C 314.874 41.250,316.100 41.194,316.058 41.125 C 316.015 41.056,314.789 41.000,313.333 41.000 C 311.877 41.000,310.652 41.056,310.609 41.125 M347.910 41.208 C 347.866 41.323,347.850 44.904,347.875 49.167 L 347.920 56.917 347.960 49.046 L 348.000 41.175 350.792 41.125 L 353.583 41.075 350.786 41.037 C 348.674 41.009,347.970 41.051,347.910 41.208 M371.708 41.124 C 372.694 41.154,374.306 41.154,375.292 41.124 C 376.277 41.095,375.471 41.071,373.500 41.071 C 371.529 41.071,370.723 41.095,371.708 41.124 M280.244 49.083 C 280.244 53.392,280.265 55.178,280.291 53.053 C 280.318 50.928,280.318 47.403,280.292 45.220 C 280.265 43.036,280.244 44.775,280.244 49.083 M374.240 44.208 L 373.750 44.750 374.292 44.260 C 374.797 43.804,374.910 43.667,374.781 43.667 C 374.752 43.667,374.509 43.910,374.240 44.208 M241.450 44.057 C 241.403 44.180,241.431 44.386,241.513 44.515 C 241.621 44.686,241.662 44.625,241.664 44.292 C 241.667 43.794,241.585 43.704,241.450 44.057 M397.208 44.948 C 397.369 44.990,397.631 44.990,397.792 44.948 C 397.952 44.906,397.821 44.872,397.500 44.872 C 397.179 44.872,397.048 44.906,397.208 44.948 M60.542 46.083 C 60.544 46.450,60.578 46.580,60.618 46.373 C 60.658 46.166,60.656 45.866,60.615 45.706 C 60.573 45.547,60.540 45.717,60.542 46.083 M171.073 50.583 C 171.073 53.150,171.096 54.177,171.125 52.865 C 171.153 51.553,171.153 49.453,171.125 48.198 C 171.096 46.943,171.073 48.017,171.073 50.583 M372.073 46.542 L 371.583 47.083 372.125 46.594 C 372.630 46.138,372.743 46.000,372.615 46.000 C 372.586 46.000,372.342 46.244,372.073 46.542 M183.740 52.250 C 183.740 54.817,183.763 55.843,183.791 54.532 C 183.820 53.220,183.819 51.120,183.791 49.865 C 183.763 48.610,183.740 49.683,183.740 52.250 M91.385 48.750 C 91.386 49.300,91.417 49.505,91.454 49.205 C 91.491 48.906,91.490 48.456,91.452 48.205 C 91.414 47.955,91.384 48.200,91.385 48.750 M191.221 49.250 C 191.222 49.892,191.252 50.134,191.288 49.788 C 191.324 49.442,191.324 48.917,191.287 48.621 C 191.250 48.325,191.221 48.608,191.221 49.250 M75.278 48.444 C 75.217 48.506,75.168 48.637,75.169 48.736 C 75.171 48.846,75.223 48.836,75.302 48.712 C 75.395 48.565,76.339 48.494,78.674 48.458 L 81.917 48.409 78.653 48.371 C 76.858 48.350,75.339 48.383,75.278 48.444 M291.714 49.083 C 291.716 49.542,291.748 49.709,291.786 49.456 C 291.825 49.203,291.824 48.828,291.784 48.623 C 291.744 48.418,291.713 48.625,291.714 49.083 M379.000 48.385 C 379.000 48.414,379.244 48.658,379.542 48.927 L 380.083 49.417 379.594 48.875 C 379.138 48.370,379.000 48.257,379.000 48.385 M327.872 49.000 C 327.872 49.321,327.906 49.452,327.948 49.292 C 327.990 49.131,327.990 48.869,327.948 48.708 C 327.906 48.548,327.872 48.679,327.872 49.000 M229.572 52.750 C 229.572 55.042,229.596 56.002,229.624 54.885 C 229.653 53.767,229.653 51.892,229.625 50.718 C 229.596 49.544,229.572 50.458,229.572 52.750 M109.153 49.875 C 109.104 50.233,109.129 50.437,109.213 50.353 C 109.294 50.273,109.333 49.992,109.300 49.729 C 109.245 49.288,109.233 49.300,109.153 49.875 M241.236 52.750 C 241.236 54.492,241.261 55.182,241.291 54.283 C 241.321 53.384,241.321 51.959,241.291 51.116 C 241.261 50.273,241.236 51.008,241.236 52.750 M164.608 50.112 C 164.714 50.188,164.838 50.438,164.885 50.667 C 164.958 51.025,164.966 51.016,164.943 50.596 C 164.928 50.321,164.808 50.080,164.667 50.042 C 164.500 49.997,164.480 50.020,164.608 50.112 M354.069 53.833 C 354.069 55.529,354.094 56.223,354.124 55.375 C 354.154 54.527,354.154 53.140,354.124 52.292 C 354.094 51.444,354.069 52.137,354.069 53.833 M23.375 52.417 C 23.377 52.783,23.411 52.914,23.451 52.706 C 23.491 52.499,23.490 52.199,23.448 52.040 C 23.406 51.880,23.374 52.050,23.375 52.417 M378.917 51.947 C 381.358 52.067,383.796 52.073,383.725 51.958 C 383.682 51.890,382.358 51.848,380.782 51.865 C 379.206 51.883,378.367 51.920,378.917 51.947 M31.223 53.167 C 31.223 53.854,31.252 54.135,31.288 53.792 C 31.324 53.448,31.324 52.885,31.288 52.542 C 31.252 52.198,31.223 52.479,31.223 53.167 M153.872 52.500 C 153.872 52.821,153.906 52.952,153.948 52.792 C 153.990 52.631,153.990 52.369,153.948 52.208 C 153.906 52.048,153.872 52.179,153.872 52.500 M33.201 56.365 C 33.182 58.629,33.223 60.515,33.292 60.558 C 33.360 60.601,33.397 59.386,33.374 57.859 C 33.295 52.734,33.235 52.221,33.201 56.365 M6.500 52.552 C 6.500 52.581,6.744 52.825,7.042 53.094 L 7.583 53.583 7.094 53.042 C 6.638 52.537,6.500 52.423,6.500 52.552 M278.399 54.667 C 278.399 55.904,278.425 56.410,278.457 55.792 C 278.489 55.173,278.489 54.160,278.457 53.542 C 278.425 52.923,278.399 53.429,278.399 54.667 M199.542 52.782 C 199.702 52.823,199.965 52.823,200.125 52.782 C 200.285 52.740,200.154 52.705,199.833 52.705 C 199.512 52.705,199.381 52.740,199.542 52.782 M135.708 53.448 C 135.869 53.490,136.131 53.490,136.292 53.448 C 136.452 53.406,136.321 53.372,136.000 53.372 C 135.679 53.372,135.548 53.406,135.708 53.448 M142.491 54.958 L 141.917 55.583 142.542 55.009 C 143.123 54.474,143.243 54.333,143.116 54.333 C 143.088 54.333,142.807 54.615,142.491 54.958 M316.737 58.833 C 316.737 60.712,316.761 61.481,316.791 60.542 C 316.821 59.602,316.821 58.065,316.791 57.125 C 316.761 56.185,316.737 56.954,316.737 58.833 M21.203 58.361 C 21.177 59.866,21.107 60.496,20.958 60.556 C 20.795 60.622,20.796 60.643,20.964 60.654 C 21.304 60.674,21.348 60.352,21.291 58.240 L 21.238 56.250 21.203 58.361 M277.208 56.948 C 277.369 56.990,277.631 56.990,277.792 56.948 C 277.952 56.906,277.821 56.872,277.500 56.872 C 277.179 56.872,277.048 56.906,277.208 56.948 M70.542 57.448 C 70.702 57.490,70.965 57.490,71.125 57.448 C 71.285 57.406,71.154 57.372,70.833 57.372 C 70.512 57.372,70.381 57.406,70.542 57.448 M27.708 68.624 C 28.327 68.656,29.340 68.656,29.958 68.624 C 30.577 68.592,30.071 68.565,28.833 68.565 C 27.596 68.565,27.090 68.592,27.708 68.624 " stroke="none" fill="#9bb5a3" fill-rule="evenodd"></path><path id="path3" d="M12.073 11.875 L 11.583 12.417 12.125 11.927 C 12.423 11.658,12.667 11.414,12.667 11.385 C 12.667 11.257,12.529 11.370,12.073 11.875 M44.250 13.833 C 44.794 14.383,45.277 14.833,45.323 14.833 C 45.369 14.833,44.961 14.383,44.417 13.833 C 43.872 13.283,43.390 12.833,43.344 12.833 C 43.298 12.833,43.706 13.283,44.250 13.833 M9.740 14.042 L 9.250 14.583 9.792 14.094 C 10.090 13.825,10.333 13.581,10.333 13.552 C 10.333 13.423,10.196 13.537,9.740 14.042 M7.906 16.042 L 7.417 16.583 7.958 16.094 C 8.256 15.825,8.500 15.581,8.500 15.552 C 8.500 15.423,8.362 15.537,7.906 16.042 M17.077 17.875 L 16.250 18.750 17.125 17.923 C 17.606 17.468,18.000 17.074,18.000 17.048 C 18.000 16.924,17.846 17.062,17.077 17.875 M39.250 19.833 C 39.979 20.567,40.613 21.167,40.659 21.167 C 40.705 21.167,40.146 20.567,39.417 19.833 C 38.688 19.100,38.054 18.500,38.008 18.500 C 37.962 18.500,38.521 19.100,39.250 19.833 M31.917 19.833 C 32.368 20.292,32.775 20.667,32.821 20.667 C 32.867 20.667,32.535 20.292,32.083 19.833 C 31.632 19.375,31.225 19.000,31.179 19.000 C 31.133 19.000,31.465 19.375,31.917 19.833 M34.221 25.250 C 34.222 25.892,34.252 26.134,34.288 25.788 C 34.324 25.442,34.324 24.917,34.287 24.621 C 34.250 24.325,34.221 24.608,34.221 25.250 M44.449 27.081 C 44.602 27.401,44.756 27.633,44.792 27.597 C 44.868 27.520,44.362 26.500,44.248 26.500 C 44.206 26.500,44.297 26.762,44.449 27.081 M9.527 27.590 C 9.248 28.203,9.301 28.334,9.603 27.777 C 9.744 27.517,9.828 27.273,9.790 27.235 C 9.752 27.196,9.634 27.357,9.527 27.590 M41.827 29.593 C 42.316 29.686,42.321 29.697,42.379 30.968 L 42.437 32.250 42.427 30.917 L 42.417 29.583 41.875 29.542 C 41.353 29.502,41.351 29.503,41.827 29.593 M12.039 30.333 C 12.039 30.654,12.073 30.785,12.115 30.625 C 12.157 30.465,12.157 30.202,12.115 30.042 C 12.073 29.881,12.039 30.012,12.039 30.333 M31.910 30.708 L 31.083 31.583 31.958 30.756 C 32.771 29.988,32.910 29.833,32.785 29.833 C 32.759 29.833,32.365 30.227,31.910 30.708 M45.690 30.167 C 45.690 30.304,45.755 30.567,45.833 30.750 C 45.924 30.960,45.977 30.991,45.977 30.833 C 45.977 30.696,45.912 30.433,45.833 30.250 C 45.743 30.040,45.690 30.009,45.690 30.167 M7.872 34.167 C 7.872 34.487,7.906 34.619,7.948 34.458 C 7.990 34.298,7.990 34.035,7.948 33.875 C 7.906 33.715,7.872 33.846,7.872 34.167 M30.406 35.208 L 29.917 35.750 30.458 35.260 C 30.963 34.804,31.077 34.667,30.948 34.667 C 30.919 34.667,30.675 34.910,30.406 35.208 M70.458 34.790 C 70.940 34.823,71.727 34.823,72.208 34.790 C 72.690 34.756,72.296 34.728,71.333 34.728 C 70.371 34.728,69.977 34.756,70.458 34.790 M85.200 35.291 C 85.997 35.321,87.347 35.321,88.200 35.291 C 89.052 35.261,88.400 35.236,86.750 35.236 C 85.100 35.235,84.402 35.260,85.200 35.291 M147.875 35.291 C 148.677 35.321,149.990 35.321,150.792 35.291 C 151.594 35.260,150.938 35.235,149.333 35.235 C 147.729 35.235,147.073 35.260,147.875 35.291 M202.448 35.274 C 202.385 35.337,202.333 37.003,202.333 38.976 L 202.333 42.562 201.792 42.073 L 201.250 41.583 201.734 42.119 C 202.462 42.926,202.500 42.767,202.500 38.907 L 202.500 35.333 205.415 35.333 L 208.331 35.333 208.376 46.125 L 208.420 56.917 208.419 46.083 L 208.417 35.250 205.490 35.205 C 203.880 35.180,202.511 35.211,202.448 35.274 M225.385 35.291 C 226.559 35.320,228.434 35.320,229.551 35.291 C 230.669 35.262,229.708 35.239,227.417 35.239 C 225.125 35.239,224.211 35.263,225.385 35.291 M241.635 35.291 C 242.763 35.320,244.563 35.320,245.635 35.291 C 246.706 35.262,245.783 35.238,243.583 35.239 C 241.383 35.239,240.506 35.262,241.635 35.291 M363.081 35.290 L 365.995 35.341 366.043 40.629 L 366.091 45.917 366.087 40.583 L 366.083 35.250 363.125 35.244 L 360.166 35.238 363.081 35.290 M83.538 45.948 C 83.517 51.833,83.556 56.682,83.625 56.724 C 83.738 56.794,83.737 49.015,83.621 39.083 C 83.597 36.975,83.560 40.064,83.538 45.948 M152.333 46.033 C 152.287 51.964,152.307 56.760,152.376 56.690 C 152.446 56.621,152.483 51.768,152.460 45.907 L 152.417 35.250 152.333 46.033 M359.872 45.948 C 359.851 51.833,359.890 56.682,359.958 56.724 C 360.072 56.794,360.070 49.015,359.955 39.083 C 359.930 36.975,359.893 40.064,359.872 45.948 M7.875 36.083 C 7.877 36.450,7.911 36.580,7.951 36.373 C 7.991 36.166,7.990 35.866,7.948 35.706 C 7.906 35.547,7.874 35.717,7.875 36.083 M271.383 36.291 C 272.097 36.322,273.222 36.322,273.883 36.290 C 274.543 36.259,273.958 36.233,272.583 36.233 C 271.208 36.234,270.668 36.259,271.383 36.291 M78.833 37.250 C 79.144 37.571,79.436 37.833,79.482 37.833 C 79.528 37.833,79.311 37.571,79.000 37.250 C 78.689 36.929,78.397 36.667,78.351 36.667 C 78.305 36.667,78.522 36.929,78.833 37.250 M8.195 38.583 C 8.192 38.767,8.255 39.067,8.333 39.250 C 8.516 39.675,8.516 39.237,8.333 38.667 C 8.226 38.332,8.199 38.315,8.195 38.583 M45.762 39.762 C 45.701 40.006,45.683 40.238,45.722 40.277 C 45.761 40.317,45.843 40.149,45.905 39.905 C 45.966 39.661,45.984 39.429,45.945 39.389 C 45.906 39.350,45.823 39.518,45.762 39.762 M36.244 40.542 L 35.417 41.417 36.292 40.590 C 37.105 39.821,37.243 39.667,37.119 39.667 C 37.092 39.667,36.699 40.060,36.244 40.542 M71.125 39.951 C 71.331 39.991,71.669 39.991,71.875 39.951 C 72.081 39.911,71.912 39.879,71.500 39.879 C 71.087 39.879,70.919 39.911,71.125 39.951 M18.167 40.583 C 18.478 40.904,18.770 41.167,18.815 41.167 C 18.861 41.167,18.644 40.904,18.333 40.583 C 18.022 40.262,17.730 40.000,17.685 40.000 C 17.639 40.000,17.856 40.262,18.167 40.583 M397.125 40.284 C 397.331 40.324,397.669 40.324,397.875 40.284 C 398.081 40.245,397.912 40.212,397.500 40.212 C 397.087 40.212,396.919 40.245,397.125 40.284 M395.573 41.042 L 395.083 41.583 395.625 41.094 C 396.130 40.638,396.243 40.500,396.115 40.500 C 396.086 40.500,395.842 40.744,395.573 41.042 M291.121 40.786 C 291.267 40.890,291.340 41.819,291.377 44.007 L 291.428 47.083 291.423 43.930 C 291.418 41.273,291.377 40.767,291.167 40.709 C 290.986 40.660,290.973 40.681,291.121 40.786 M358.705 40.771 C 358.962 40.847,358.998 41.188,359.044 43.928 L 359.095 47.000 359.089 43.877 C 359.084 40.879,359.070 40.753,358.750 40.720 C 358.498 40.694,358.487 40.707,358.705 40.771 M398.500 40.719 C 398.500 40.748,398.744 40.991,399.042 41.260 L 399.583 41.750 399.094 41.208 C 398.638 40.703,398.500 40.590,398.500 40.719 M173.244 49.000 C 173.244 53.354,173.265 55.135,173.292 52.958 C 173.318 50.781,173.318 47.219,173.292 45.042 C 173.265 42.865,173.244 44.646,173.244 49.000 M178.639 42.208 C 178.670 42.781,178.745 43.303,178.806 43.367 C 178.867 43.432,178.892 42.963,178.861 42.326 C 178.831 41.688,178.756 41.167,178.695 41.166 C 178.633 41.166,178.608 41.635,178.639 42.208 M267.241 42.917 L 267.250 44.750 268.289 44.800 L 269.328 44.849 269.375 48.966 L 269.423 53.083 269.461 48.875 L 269.500 44.667 268.422 44.667 L 267.345 44.667 267.288 42.875 L 267.231 41.083 267.241 42.917 M278.368 42.869 L 278.333 44.654 276.875 44.709 L 275.417 44.765 276.880 44.799 C 278.616 44.840,278.531 44.951,278.458 42.738 L 278.403 41.083 278.368 42.869 M310.577 41.375 C 310.533 41.490,310.516 46.233,310.540 51.917 L 310.583 62.250 310.667 51.708 C 310.713 45.910,310.729 41.167,310.703 41.167 C 310.677 41.167,310.620 41.260,310.577 41.375 M316.032 42.292 C 316.002 43.265,316.155 43.590,316.433 43.141 C 316.504 43.025,316.479 42.994,316.368 43.062 C 316.244 43.139,316.164 42.861,316.123 42.213 L 316.063 41.250 316.032 42.292 M396.444 41.444 C 396.291 41.598,396.304 43.962,396.458 44.058 C 396.527 44.101,396.558 43.570,396.528 42.878 C 396.487 41.962,396.532 41.582,396.694 41.479 C 396.817 41.402,396.835 41.337,396.736 41.336 C 396.637 41.334,396.506 41.383,396.444 41.444 M115.523 41.667 C 115.523 41.804,115.588 42.067,115.667 42.250 C 115.757 42.460,115.810 42.491,115.810 42.333 C 115.810 42.196,115.745 41.933,115.667 41.750 C 115.576 41.540,115.523 41.509,115.523 41.667 M187.667 41.719 C 187.667 41.748,187.910 41.991,188.208 42.260 L 188.750 42.750 188.260 42.208 C 187.804 41.703,187.667 41.590,187.667 41.719 M316.991 42.292 L 316.417 42.917 317.042 42.342 C 317.623 41.808,317.743 41.667,317.616 41.667 C 317.588 41.667,317.307 41.948,316.991 42.292 M396.872 42.167 C 396.872 42.487,396.906 42.619,396.948 42.458 C 396.990 42.298,396.990 42.035,396.948 41.875 C 396.906 41.715,396.872 41.846,396.872 42.167 M193.658 42.458 L 193.083 43.083 193.708 42.509 C 194.290 41.974,194.410 41.833,194.283 41.833 C 194.255 41.833,193.974 42.115,193.658 42.458 M156.021 42.746 C 155.643 43.157,155.333 43.544,155.333 43.607 C 155.333 43.671,155.358 43.691,155.388 43.653 C 155.418 43.615,155.766 43.227,156.159 42.792 C 156.553 42.356,156.838 42.000,156.792 42.000 C 156.747 42.000,156.400 42.336,156.021 42.746 M9.345 42.250 C 9.345 42.342,9.452 42.604,9.583 42.833 C 9.714 43.063,9.822 43.175,9.822 43.083 C 9.822 42.992,9.714 42.729,9.583 42.500 C 9.452 42.271,9.345 42.158,9.345 42.250 M379.573 42.708 L 379.083 43.250 379.625 42.760 C 380.130 42.304,380.243 42.167,380.115 42.167 C 380.086 42.167,379.842 42.410,379.573 42.708 M395.209 42.750 C 395.211 43.117,395.245 43.247,395.285 43.040 C 395.324 42.832,395.323 42.532,395.281 42.373 C 395.239 42.214,395.207 42.383,395.209 42.750 M141.826 43.042 C 142.235 43.477,142.591 43.833,142.618 43.833 C 142.743 43.833,142.611 43.684,141.875 42.993 L 141.083 42.250 141.826 43.042 M375.242 43.042 L 374.583 43.750 375.292 43.091 C 375.950 42.478,376.077 42.333,375.950 42.333 C 375.923 42.333,375.605 42.652,375.242 43.042 M264.250 43.167 C 264.608 43.533,264.938 43.833,264.984 43.833 C 265.030 43.833,264.775 43.533,264.417 43.167 C 264.059 42.800,263.728 42.500,263.682 42.500 C 263.637 42.500,263.892 42.800,264.250 43.167 M307.000 43.083 C 307.311 43.404,307.603 43.667,307.649 43.667 C 307.695 43.667,307.478 43.404,307.167 43.083 C 306.856 42.762,306.564 42.500,306.518 42.500 C 306.472 42.500,306.689 42.762,307.000 43.083 M251.406 43.208 L 250.917 43.750 251.458 43.260 C 251.963 42.804,252.077 42.667,251.948 42.667 C 251.919 42.667,251.675 42.910,251.406 43.208 M396.898 43.238 C 396.848 43.369,396.835 43.650,396.869 43.863 C 396.915 44.148,396.953 44.085,397.015 43.625 C 397.103 42.978,397.057 42.825,396.898 43.238 M110.096 43.500 C 110.157 43.729,110.276 44.029,110.361 44.167 C 110.469 44.340,110.482 44.290,110.404 44.000 C 110.343 43.771,110.224 43.471,110.139 43.333 C 110.031 43.160,110.018 43.210,110.096 43.500 M229.142 43.441 C 229.106 43.519,229.118 43.996,229.168 44.500 L 229.260 45.417 229.338 44.526 C 229.410 43.707,229.300 43.098,229.142 43.441 M241.413 43.679 C 241.352 43.869,241.347 44.069,241.401 44.124 C 241.456 44.178,241.500 44.130,241.500 44.018 C 241.500 43.906,241.575 43.860,241.667 43.917 C 241.758 43.973,241.833 43.865,241.833 43.677 C 241.833 43.231,241.554 43.233,241.413 43.679 M67.564 46.250 C 67.564 47.350,67.591 47.778,67.624 47.202 C 67.656 46.625,67.656 45.725,67.623 45.202 C 67.590 44.678,67.563 45.150,67.564 46.250 M162.542 44.448 C 162.702 44.490,162.965 44.490,163.125 44.448 C 163.285 44.406,163.154 44.372,162.833 44.372 C 162.512 44.372,162.381 44.406,162.542 44.448 M337.294 44.451 C 337.501 44.491,337.801 44.490,337.960 44.448 C 338.120 44.406,337.950 44.374,337.583 44.375 C 337.217 44.377,337.086 44.411,337.294 44.451 M387.429 44.958 L 387.893 45.667 390.613 45.667 C 393.329 45.667,393.333 45.666,393.314 45.292 C 393.299 45.009,393.276 44.989,393.218 45.208 C 393.098 45.670,387.904 45.651,387.757 45.189 C 387.703 45.017,387.502 44.736,387.312 44.564 C 387.047 44.324,387.074 44.417,387.429 44.958 M241.545 45.333 C 241.545 45.746,241.578 45.915,241.618 45.708 C 241.657 45.502,241.657 45.165,241.618 44.958 C 241.578 44.752,241.545 44.921,241.545 45.333 M373.000 45.417 C 372.595 45.829,372.301 46.167,372.347 46.167 C 372.393 46.167,372.762 45.829,373.167 45.417 C 373.572 45.004,373.865 44.667,373.819 44.667 C 373.774 44.667,373.405 45.004,373.000 45.417 M170.879 45.500 C 170.879 45.913,170.911 46.081,170.951 45.875 C 170.991 45.669,170.991 45.331,170.951 45.125 C 170.911 44.919,170.879 45.087,170.879 45.500 M259.500 44.885 C 259.500 44.914,259.744 45.158,260.042 45.427 L 260.583 45.917 260.094 45.375 C 259.638 44.870,259.500 44.757,259.500 44.885 M329.567 45.500 L 329.583 45.917 332.458 45.923 L 335.334 45.929 332.511 45.877 C 329.743 45.827,329.687 45.818,329.620 45.454 C 329.561 45.139,329.554 45.145,329.567 45.500 M378.379 45.833 C 378.379 46.246,378.411 46.415,378.451 46.208 C 378.491 46.002,378.491 45.665,378.451 45.458 C 378.411 45.252,378.379 45.421,378.379 45.833 M154.887 45.583 C 154.923 45.933,160.356 46.210,160.688 45.879 C 160.759 45.808,159.515 45.772,157.922 45.799 C 155.258 45.844,155.020 45.824,154.940 45.549 C 154.868 45.304,154.859 45.310,154.887 45.583 M189.908 51.500 C 189.908 54.387,189.930 55.569,189.958 54.125 C 189.986 52.681,189.986 50.319,189.958 48.875 C 189.930 47.431,189.908 48.612,189.908 51.500 M241.394 48.083 C 241.395 49.000,241.423 49.354,241.456 48.869 C 241.490 48.385,241.490 47.635,241.456 47.203 C 241.421 46.770,241.394 47.167,241.394 48.083 M255.223 46.833 L 255.250 47.250 258.042 47.256 L 260.834 47.262 258.095 47.211 C 255.417 47.160,255.354 47.150,255.275 46.788 C 255.206 46.468,255.199 46.474,255.223 46.833 M132.876 47.000 C 132.951 47.275,138.258 47.475,138.521 47.213 C 138.593 47.142,137.405 47.106,135.882 47.133 C 133.756 47.171,133.077 47.132,132.960 46.966 C 132.843 46.799,132.823 46.807,132.876 47.000 M98.958 47.291 C 99.715 47.322,100.952 47.322,101.708 47.291 C 102.465 47.260,101.846 47.235,100.333 47.235 C 98.821 47.235,98.202 47.260,98.958 47.291 M160.375 47.448 C 160.535 47.490,160.798 47.490,160.958 47.448 C 161.119 47.406,160.987 47.372,160.667 47.372 C 160.346 47.372,160.215 47.406,160.375 47.448 M287.235 47.921 C 286.989 48.245,286.816 48.536,286.852 48.569 C 286.887 48.603,287.122 48.338,287.373 47.982 C 287.944 47.172,287.841 47.127,287.235 47.921 M291.872 47.833 C 291.872 48.154,291.906 48.285,291.948 48.125 C 291.990 47.965,291.990 47.702,291.948 47.542 C 291.906 47.381,291.872 47.512,291.872 47.833 M335.042 47.448 C 335.202 47.490,335.465 47.490,335.625 47.448 C 335.785 47.406,335.654 47.372,335.333 47.372 C 335.012 47.372,334.881 47.406,335.042 47.448 M249.212 48.333 C 249.212 48.746,249.245 48.915,249.284 48.708 C 249.324 48.502,249.324 48.165,249.284 47.958 C 249.245 47.752,249.212 47.921,249.212 48.333 M309.224 48.917 C 309.224 49.650,309.254 49.929,309.289 49.537 C 309.324 49.145,309.324 48.545,309.288 48.204 C 309.252 47.863,309.223 48.183,309.224 48.917 M303.220 48.833 C 303.220 49.429,303.250 49.673,303.287 49.375 C 303.324 49.077,303.324 48.590,303.287 48.292 C 303.250 47.994,303.220 48.237,303.220 48.833 M126.888 49.083 C 126.889 49.725,126.919 49.967,126.955 49.621 C 126.991 49.275,126.990 48.750,126.954 48.455 C 126.917 48.159,126.887 48.442,126.888 49.083 M197.381 48.750 C 197.382 49.208,197.415 49.376,197.453 49.123 C 197.491 48.869,197.490 48.494,197.451 48.289 C 197.411 48.084,197.380 48.292,197.381 48.750 M202.556 49.167 C 202.556 49.854,202.585 50.135,202.621 49.792 C 202.657 49.448,202.657 48.885,202.621 48.542 C 202.585 48.198,202.556 48.479,202.556 49.167 M297.887 49.000 C 297.887 49.596,297.917 49.840,297.954 49.542 C 297.991 49.244,297.991 48.756,297.954 48.458 C 297.917 48.160,297.887 48.404,297.887 49.000 M179.239 52.500 C 179.239 54.929,179.263 55.923,179.291 54.708 C 179.320 53.494,179.320 51.506,179.291 50.292 C 179.263 49.077,179.239 50.071,179.239 52.500 M321.714 48.917 C 321.716 49.375,321.748 49.543,321.786 49.289 C 321.825 49.036,321.824 48.661,321.784 48.456 C 321.744 48.251,321.713 48.458,321.714 48.917 M109.039 48.833 C 109.039 49.154,109.073 49.285,109.115 49.125 C 109.157 48.965,109.157 48.702,109.115 48.542 C 109.073 48.381,109.039 48.512,109.039 48.833 M144.529 49.456 L 144.500 50.329 138.722 50.373 C 134.201 50.407,132.935 50.463,132.901 50.629 C 132.878 50.746,132.896 50.765,132.943 50.671 C 132.998 50.559,135.014 50.500,138.769 50.500 C 145.150 50.500,144.736 50.584,144.623 49.311 C 144.559 48.590,144.558 48.591,144.529 49.456 M266.861 49.540 L 266.833 50.329 261.044 50.373 C 255.645 50.414,255.253 50.437,255.228 50.712 C 255.209 50.918,255.224 50.930,255.279 50.753 C 255.348 50.533,256.109 50.500,261.101 50.500 C 267.446 50.500,267.077 50.570,266.956 49.393 C 266.893 48.780,266.888 48.787,266.861 49.540 M329.740 49.375 L 329.250 49.917 329.792 49.427 C 330.297 48.971,330.410 48.833,330.281 48.833 C 330.252 48.833,330.009 49.077,329.740 49.375 M49.833 49.667 C 49.638 49.942,49.515 50.167,49.561 50.167 C 49.606 50.167,49.804 49.942,50.000 49.667 C 50.196 49.392,50.319 49.167,50.273 49.167 C 50.227 49.167,50.029 49.392,49.833 49.667 M249.209 49.917 C 249.211 50.283,249.245 50.414,249.285 50.206 C 249.324 49.999,249.323 49.699,249.281 49.540 C 249.239 49.380,249.207 49.550,249.209 49.917 M339.480 50.370 C 339.557 50.833,339.580 50.856,339.633 50.522 C 339.667 50.306,339.626 50.060,339.542 49.976 C 339.450 49.883,339.425 50.039,339.480 50.370 M354.039 50.333 C 354.039 50.654,354.073 50.785,354.115 50.625 C 354.157 50.465,354.157 50.202,354.115 50.042 C 354.073 49.881,354.039 50.012,354.039 50.333 M117.838 50.167 C 117.838 50.454,118.117 50.946,118.213 50.829 C 118.248 50.785,118.179 50.563,118.058 50.333 C 117.937 50.104,117.838 50.029,117.838 50.167 M291.872 50.500 C 291.872 50.821,291.906 50.952,291.948 50.792 C 291.990 50.631,291.990 50.369,291.948 50.208 C 291.906 50.048,291.872 50.179,291.872 50.500 M103.250 50.333 L 97.417 50.423 103.198 50.462 C 106.915 50.486,109.017 50.440,109.083 50.333 C 109.140 50.242,109.163 50.184,109.135 50.205 C 109.107 50.226,106.458 50.284,103.250 50.333 M68.833 51.083 C 69.144 51.404,69.436 51.667,69.482 51.667 C 69.528 51.667,69.311 51.404,69.000 51.083 C 68.689 50.762,68.397 50.500,68.351 50.500 C 68.305 50.500,68.522 50.762,68.833 51.083 M112.596 50.833 C 112.657 51.063,112.776 51.362,112.861 51.500 C 112.969 51.674,112.982 51.623,112.904 51.333 C 112.843 51.104,112.724 50.804,112.639 50.667 C 112.531 50.493,112.518 50.544,112.596 50.833 M286.403 53.667 C 286.403 55.454,286.428 56.185,286.458 55.292 C 286.488 54.398,286.488 52.935,286.458 52.042 C 286.428 51.148,286.403 51.879,286.403 53.667 M23.372 51.333 C 23.372 51.654,23.406 51.785,23.448 51.625 C 23.490 51.465,23.490 51.202,23.448 51.042 C 23.406 50.881,23.372 51.012,23.372 51.333 M36.292 51.095 C 35.669 51.433,35.707 51.574,36.333 51.250 C 36.608 51.108,36.833 50.956,36.833 50.912 C 36.833 50.805,36.815 50.811,36.292 51.095 M335.179 51.439 C 334.981 51.691,334.842 52.100,334.852 52.397 C 334.871 52.901,334.875 52.897,334.993 52.292 C 335.059 51.949,335.250 51.518,335.416 51.334 C 335.582 51.150,335.675 51.000,335.621 51.000 C 335.568 51.000,335.369 51.198,335.179 51.439 M366.491 51.958 L 365.917 52.583 366.527 52.023 C 366.904 51.677,367.217 51.511,367.345 51.590 C 367.478 51.673,367.509 51.650,367.433 51.526 C 367.246 51.224,367.106 51.289,366.491 51.958 M239.095 51.929 C 239.034 52.173,239.016 52.405,239.055 52.444 C 239.094 52.483,239.177 52.316,239.238 52.071 C 239.299 51.827,239.317 51.595,239.278 51.556 C 239.239 51.517,239.157 51.684,239.095 51.929 M105.659 52.125 C 107.594 52.160,108.441 52.235,108.532 52.379 C 108.622 52.521,108.662 52.495,108.664 52.292 C 108.666 52.024,108.434 52.003,105.792 52.037 L 102.917 52.074 105.659 52.125 M138.145 52.292 C 137.944 52.549,137.948 52.559,138.179 52.379 C 138.355 52.241,139.359 52.159,141.262 52.125 L 144.083 52.075 141.229 52.037 C 138.681 52.004,138.350 52.031,138.145 52.292 M260.479 52.292 C 260.277 52.549,260.281 52.559,260.512 52.379 C 260.689 52.241,261.692 52.159,263.595 52.125 L 266.417 52.075 263.562 52.037 C 261.015 52.004,260.683 52.031,260.479 52.292 M328.539 52.500 C 328.539 52.821,328.573 52.952,328.615 52.792 C 328.657 52.631,328.657 52.369,328.615 52.208 C 328.573 52.048,328.539 52.179,328.539 52.500 M277.042 52.453 C 277.294 52.491,277.706 52.491,277.958 52.453 C 278.210 52.415,278.004 52.383,277.500 52.383 C 276.996 52.383,276.790 52.415,277.042 52.453 M46.411 53.875 L 45.417 54.917 46.458 53.922 C 47.426 52.998,47.576 52.833,47.453 52.833 C 47.427 52.833,46.959 53.302,46.411 53.875 M366.061 54.417 C 366.061 55.333,366.089 55.687,366.123 55.203 C 366.157 54.718,366.156 53.968,366.122 53.536 C 366.088 53.104,366.060 53.500,366.061 54.417 M384.370 53.375 C 384.628 53.627,384.931 53.831,385.044 53.828 C 385.157 53.825,385.100 53.740,384.917 53.639 C 384.733 53.537,384.430 53.333,384.242 53.186 C 384.054 53.038,384.112 53.123,384.370 53.375 M23.581 60.875 L 23.583 68.583 25.083 68.593 L 26.583 68.602 25.127 68.545 L 23.670 68.488 23.624 60.827 L 23.578 53.167 23.581 60.875 M192.000 53.230 C 192.000 53.409,192.496 54.333,192.592 54.333 C 192.638 54.333,192.551 54.090,192.400 53.792 C 192.090 53.183,192.000 53.056,192.000 53.230 M8.000 54.083 C 8.311 54.404,8.603 54.667,8.649 54.667 C 8.695 54.667,8.478 54.404,8.167 54.083 C 7.856 53.762,7.564 53.500,7.518 53.500 C 7.472 53.500,7.689 53.762,8.000 54.083 M63.660 54.375 C 64.068 54.810,64.425 55.167,64.451 55.167 C 64.577 55.167,64.444 55.017,63.708 54.326 L 62.917 53.583 63.660 54.375 M161.877 53.786 C 162.131 53.825,162.506 53.824,162.711 53.784 C 162.916 53.744,162.708 53.713,162.250 53.714 C 161.792 53.716,161.624 53.748,161.877 53.786 M336.544 53.786 C 336.797 53.825,337.172 53.824,337.377 53.784 C 337.582 53.744,337.375 53.713,336.917 53.714 C 336.458 53.716,336.291 53.748,336.544 53.786 M385.627 53.951 C 385.834 53.991,386.134 53.990,386.294 53.948 C 386.453 53.906,386.283 53.874,385.917 53.875 C 385.550 53.877,385.420 53.911,385.627 53.951 M31.076 61.417 C 31.076 65.358,31.098 66.947,31.125 64.947 C 31.151 62.947,31.151 59.722,31.125 57.780 C 31.098 55.839,31.076 57.475,31.076 61.417 M250.833 54.385 C 250.833 54.414,251.077 54.658,251.375 54.927 L 251.917 55.417 251.427 54.875 C 250.971 54.370,250.833 54.257,250.833 54.385 M306.991 54.958 L 306.417 55.583 307.042 55.009 C 307.385 54.693,307.667 54.412,307.667 54.384 C 307.667 54.257,307.526 54.377,306.991 54.958 M121.852 55.519 C 121.749 55.813,121.694 56.083,121.730 56.119 C 121.766 56.155,121.879 55.943,121.981 55.648 C 122.084 55.354,122.139 55.083,122.103 55.048 C 122.068 55.012,121.955 55.224,121.852 55.519 M273.627 56.951 C 273.834 56.991,274.134 56.990,274.294 56.948 C 274.453 56.906,274.283 56.874,273.917 56.875 C 273.550 56.877,273.420 56.911,273.627 56.951 M275.708 56.953 C 275.960 56.991,276.373 56.991,276.625 56.953 C 276.877 56.915,276.671 56.883,276.167 56.883 C 275.662 56.883,275.456 56.915,275.708 56.953 M99.621 57.287 C 99.917 57.324,100.442 57.324,100.788 57.288 C 101.134 57.252,100.892 57.222,100.250 57.221 C 99.608 57.221,99.325 57.250,99.621 57.287 M135.125 57.287 C 135.423 57.324,135.910 57.324,136.208 57.287 C 136.506 57.250,136.262 57.220,135.667 57.220 C 135.071 57.220,134.827 57.250,135.125 57.287 M158.958 57.287 C 159.256 57.324,159.744 57.324,160.042 57.287 C 160.340 57.250,160.096 57.220,159.500 57.220 C 158.904 57.220,158.660 57.250,158.958 57.287 M197.795 57.287 C 198.094 57.325,198.544 57.324,198.795 57.286 C 199.045 57.248,198.800 57.217,198.250 57.218 C 197.700 57.219,197.495 57.250,197.795 57.287 M257.288 57.287 C 257.584 57.324,258.109 57.324,258.455 57.288 C 258.800 57.252,258.558 57.222,257.917 57.221 C 257.275 57.221,256.992 57.250,257.288 57.287 M299.955 57.287 C 300.250 57.324,300.775 57.324,301.121 57.288 C 301.467 57.252,301.225 57.222,300.583 57.221 C 299.942 57.221,299.659 57.250,299.955 57.287 M320.377 57.286 C 320.631 57.325,321.006 57.324,321.211 57.284 C 321.416 57.244,321.208 57.213,320.750 57.214 C 320.292 57.216,320.124 57.248,320.377 57.286 M333.625 57.287 C 333.923 57.324,334.410 57.324,334.708 57.287 C 335.006 57.250,334.762 57.220,334.167 57.220 C 333.571 57.220,333.327 57.250,333.625 57.287 M385.129 57.289 C 385.521 57.324,386.121 57.324,386.463 57.288 C 386.804 57.252,386.483 57.223,385.750 57.224 C 385.017 57.224,384.737 57.254,385.129 57.289 " stroke="none" fill="#7c9984" fill-rule="evenodd"></path><path id="path4" d="M26.645 0.625 C 26.438 0.889,26.444 0.895,26.706 0.690 C 26.865 0.565,27.113 0.508,27.257 0.563 C 27.407 0.620,27.474 0.593,27.415 0.498 C 27.258 0.243,26.898 0.303,26.645 0.625 M24.917 11.765 L 24.417 12.194 24.958 11.836 C 25.256 11.639,25.500 11.445,25.500 11.405 C 25.500 11.281,25.429 11.324,24.917 11.765 M44.500 13.917 C 45.367 14.787,46.114 15.500,46.160 15.500 C 46.206 15.500,45.534 14.787,44.667 13.917 C 43.799 13.046,43.052 12.333,43.007 12.333 C 42.961 12.333,43.633 13.046,44.500 13.917 M9.828 13.792 L 8.917 14.750 9.875 13.839 C 10.765 12.993,10.910 12.833,10.786 12.833 C 10.760 12.833,10.329 13.265,9.828 13.792 M18.573 16.708 L 18.083 17.250 18.625 16.760 C 18.923 16.491,19.167 16.248,19.167 16.219 C 19.167 16.090,19.029 16.203,18.573 16.708 M37.000 17.917 C 37.311 18.237,37.603 18.500,37.649 18.500 C 37.695 18.500,37.478 18.237,37.167 17.917 C 36.856 17.596,36.564 17.333,36.518 17.333 C 36.472 17.333,36.689 17.596,37.000 17.917 M16.991 18.125 L 16.417 18.750 17.042 18.176 C 17.623 17.641,17.743 17.500,17.616 17.500 C 17.588 17.500,17.307 17.781,16.991 18.125 M39.500 20.250 C 39.811 20.571,40.103 20.833,40.149 20.833 C 40.195 20.833,39.978 20.571,39.667 20.250 C 39.356 19.929,39.064 19.667,39.018 19.667 C 38.972 19.667,39.189 19.929,39.500 20.250 M11.667 24.000 C 11.471 24.275,11.348 24.500,11.394 24.500 C 11.440 24.500,11.638 24.275,11.833 24.000 C 12.029 23.725,12.152 23.500,12.106 23.500 C 12.060 23.500,11.862 23.725,11.667 24.000 M34.388 25.250 C 34.389 25.892,34.419 26.134,34.455 25.788 C 34.491 25.442,34.490 24.917,34.454 24.621 C 34.417 24.325,34.387 24.608,34.388 25.250 M18.881 25.250 C 18.882 25.708,18.915 25.876,18.953 25.623 C 18.991 25.369,18.990 24.994,18.951 24.789 C 18.911 24.584,18.880 24.792,18.881 25.250 M31.991 30.792 L 31.417 31.417 32.042 30.842 C 32.623 30.308,32.743 30.167,32.616 30.167 C 32.588 30.167,32.307 30.448,31.991 30.792 M18.181 30.895 C 18.352 31.049,19.333 31.500,19.333 31.425 C 19.333 31.329,18.409 30.833,18.230 30.833 C 18.165 30.833,18.142 30.861,18.181 30.895 M46.212 33.500 C 46.212 33.912,46.245 34.081,46.284 33.875 C 46.324 33.669,46.324 33.331,46.284 33.125 C 46.245 32.919,46.212 33.087,46.212 33.500 M54.381 33.583 C 54.382 34.042,54.415 34.209,54.453 33.956 C 54.491 33.703,54.490 33.328,54.451 33.123 C 54.411 32.918,54.380 33.125,54.381 33.583 M8.042 34.083 C 8.044 34.450,8.078 34.580,8.118 34.373 C 8.158 34.166,8.156 33.866,8.115 33.706 C 8.073 33.547,8.040 33.717,8.042 34.083 M70.708 34.621 C 71.052 34.657,71.615 34.657,71.958 34.621 C 72.302 34.585,72.021 34.556,71.333 34.556 C 70.646 34.556,70.365 34.585,70.708 34.621 M146.243 35.208 C 146.199 35.323,146.183 40.254,146.207 46.167 L 146.250 56.917 149.333 56.922 L 152.417 56.928 149.375 56.877 L 146.333 56.826 146.333 46.007 L 146.333 35.188 146.875 35.121 L 147.417 35.053 146.870 35.027 C 146.564 35.012,146.288 35.092,146.243 35.208 M223.243 35.208 C 223.199 35.323,223.183 40.254,223.207 46.167 L 223.250 56.917 226.333 56.922 L 229.417 56.928 226.375 56.877 L 223.333 56.826 223.333 46.007 L 223.333 35.189 223.792 35.119 L 224.250 35.050 223.786 35.025 C 223.531 35.011,223.287 35.094,223.243 35.208 M365.884 35.208 C 366.135 35.394,366.169 35.956,366.207 40.472 L 366.250 45.527 366.667 45.056 C 367.019 44.658,367.026 44.634,366.708 44.902 L 366.333 45.218 366.333 40.309 C 366.333 35.428,366.288 35.000,365.768 35.000 C 365.677 35.000,365.729 35.094,365.884 35.208 M208.540 45.958 L 208.500 56.833 205.750 56.833 L 203.000 56.833 203.000 56.000 C 203.000 55.205,202.824 54.944,202.567 55.359 C 202.496 55.475,202.521 55.506,202.632 55.438 C 202.753 55.364,202.832 55.595,202.866 56.121 L 202.917 56.917 205.712 56.962 C 207.857 56.997,208.526 56.959,208.589 56.796 C 208.633 56.679,208.650 51.746,208.625 45.833 L 208.581 35.083 208.540 45.958 M202.205 38.737 L 202.167 42.225 201.708 41.825 L 201.250 41.426 201.703 41.913 C 202.344 42.600,202.346 42.591,202.292 38.733 L 202.243 35.250 202.205 38.737 M8.045 36.167 C 8.045 36.579,8.078 36.748,8.118 36.542 C 8.157 36.335,8.157 35.998,8.118 35.792 C 8.078 35.585,8.045 35.754,8.045 36.167 M46.209 36.750 C 46.211 37.117,46.245 37.247,46.285 37.040 C 46.324 36.832,46.323 36.532,46.281 36.373 C 46.239 36.214,46.207 36.383,46.209 36.750 M275.567 38.583 C 275.567 39.958,275.593 40.499,275.624 39.784 C 275.655 39.069,275.655 37.944,275.624 37.284 C 275.592 36.624,275.566 37.208,275.567 38.583 M54.383 37.167 C 54.383 37.671,54.415 37.877,54.453 37.625 C 54.491 37.373,54.491 36.960,54.453 36.708 C 54.415 36.456,54.383 36.662,54.383 37.167 M79.167 37.385 C 79.167 37.414,79.410 37.658,79.708 37.927 L 80.250 38.417 79.760 37.875 C 79.304 37.370,79.167 37.257,79.167 37.385 M27.265 39.083 C 27.115 39.313,27.057 39.500,27.136 39.500 C 27.215 39.500,27.365 39.313,27.470 39.083 C 27.574 38.854,27.632 38.667,27.599 38.667 C 27.566 38.667,27.415 38.854,27.265 39.083 M71.208 40.115 C 71.369 40.157,71.631 40.157,71.792 40.115 C 71.952 40.073,71.821 40.039,71.500 40.039 C 71.179 40.039,71.048 40.073,71.208 40.115 M397.125 40.118 C 397.331 40.157,397.669 40.157,397.875 40.118 C 398.081 40.078,397.912 40.045,397.500 40.045 C 397.087 40.045,396.919 40.078,397.125 40.118 M18.167 40.750 C 18.478 41.071,18.770 41.333,18.815 41.333 C 18.861 41.333,18.644 41.071,18.333 40.750 C 18.022 40.429,17.730 40.167,17.685 40.167 C 17.639 40.167,17.856 40.429,18.167 40.750 M73.500 40.552 C 73.500 40.581,73.744 40.825,74.042 41.094 L 74.583 41.583 74.094 41.042 C 73.638 40.537,73.500 40.423,73.500 40.552 M162.960 40.618 C 163.168 40.658,163.468 40.656,163.627 40.615 C 163.786 40.573,163.617 40.540,163.250 40.542 C 162.883 40.544,162.753 40.578,162.960 40.618 M337.627 40.618 C 337.834 40.658,338.134 40.656,338.294 40.615 C 338.453 40.573,338.283 40.540,337.917 40.542 C 337.550 40.544,337.420 40.578,337.627 40.618 M396.249 41.001 C 396.093 41.254,396.532 41.361,397.438 41.290 L 398.250 41.227 397.282 41.197 C 396.686 41.178,396.353 41.103,396.417 41.000 C 396.473 40.908,396.482 40.833,396.436 40.833 C 396.391 40.833,396.306 40.909,396.249 41.001 M173.076 41.208 C 173.032 41.323,173.016 44.904,173.040 49.167 L 173.083 56.917 176.250 56.917 L 179.417 56.917 179.421 52.250 L 179.425 47.583 179.376 52.208 L 179.328 56.833 176.244 56.833 L 173.160 56.833 173.205 48.917 C 173.230 44.562,173.229 41.000,173.203 41.000 C 173.177 41.000,173.120 41.094,173.076 41.208 M267.072 41.220 C 267.026 41.340,267.010 42.222,267.037 43.178 L 267.086 44.917 267.168 42.958 C 267.249 41.022,267.236 40.791,267.072 41.220 M316.133 41.808 C 316.214 43.061,316.220 43.072,316.583 42.646 C 316.830 42.357,316.841 42.315,316.625 42.482 C 316.357 42.689,316.333 42.646,316.333 41.947 C 316.333 41.529,316.277 41.152,316.208 41.109 C 316.140 41.067,316.106 41.381,316.133 41.808 M353.500 42.500 C 353.500 43.264,353.549 43.840,353.609 43.780 C 353.726 43.663,353.694 41.305,353.573 41.185 C 353.533 41.144,353.500 41.736,353.500 42.500 M68.409 42.015 C 68.262 42.299,68.172 42.561,68.208 42.597 C 68.244 42.633,68.398 42.401,68.551 42.081 C 68.894 41.362,68.775 41.308,68.409 42.015 M397.060 41.917 C 396.916 42.293,397.118 42.669,397.453 42.647 C 397.731 42.629,397.732 42.623,397.458 42.552 C 397.298 42.510,397.167 42.337,397.167 42.167 C 397.167 41.997,397.298 41.823,397.458 41.782 C 397.732 41.710,397.731 41.704,397.453 41.686 C 397.290 41.675,397.113 41.779,397.060 41.917 M375.909 42.542 L 375.250 43.250 375.958 42.591 C 376.617 41.978,376.743 41.833,376.617 41.833 C 376.590 41.833,376.271 42.152,375.909 42.542 M344.498 42.418 C 345.161 43.217,345.217 43.269,345.036 42.915 C 344.941 42.730,344.689 42.431,344.474 42.249 C 344.097 41.931,344.098 41.937,344.498 42.418 M379.491 42.625 L 378.917 43.250 379.542 42.676 C 380.123 42.141,380.243 42.000,380.116 42.000 C 380.088 42.000,379.807 42.281,379.491 42.625 M395.375 42.750 C 395.377 43.117,395.411 43.247,395.451 43.040 C 395.491 42.832,395.490 42.532,395.448 42.373 C 395.406 42.214,395.374 42.383,395.375 42.750 M264.326 43.042 C 265.017 43.778,265.167 43.910,265.167 43.785 C 265.167 43.758,264.810 43.402,264.375 42.993 L 263.583 42.250 264.326 43.042 M307.083 43.000 C 307.441 43.367,307.772 43.667,307.818 43.667 C 307.863 43.667,307.608 43.367,307.250 43.000 C 306.892 42.633,306.562 42.333,306.516 42.333 C 306.470 42.333,306.725 42.633,307.083 43.000 M399.539 42.833 C 399.539 43.154,399.573 43.285,399.615 43.125 C 399.657 42.965,399.657 42.702,399.615 42.542 C 399.573 42.381,399.539 42.512,399.539 42.833 M251.324 43.125 L 250.750 43.750 251.375 43.176 C 251.957 42.641,252.077 42.500,251.949 42.500 C 251.922 42.500,251.640 42.781,251.324 43.125 M75.053 43.250 C 75.086 43.571,75.212 43.584,78.419 43.589 L 81.750 43.594 78.470 43.543 C 75.531 43.498,75.181 43.463,75.104 43.205 C 75.040 42.986,75.027 42.997,75.053 43.250 M397.023 43.613 C 397.005 44.021,396.914 44.160,396.625 44.216 L 396.250 44.288 396.630 44.311 C 397.058 44.336,397.228 44.044,397.119 43.470 C 397.062 43.169,397.040 43.201,397.023 43.613 M100.042 44.615 C 100.202 44.657,100.465 44.657,100.625 44.615 C 100.785 44.573,100.654 44.539,100.333 44.539 C 100.013 44.539,99.881 44.573,100.042 44.615 M135.460 44.618 C 135.668 44.658,135.968 44.656,136.127 44.615 C 136.286 44.573,136.117 44.540,135.750 44.542 C 135.383 44.544,135.253 44.578,135.460 44.618 M162.544 44.620 C 162.797 44.658,163.172 44.657,163.377 44.617 C 163.582 44.578,163.375 44.546,162.917 44.548 C 162.458 44.549,162.291 44.581,162.544 44.620 M337.042 44.619 C 337.294 44.658,337.706 44.658,337.958 44.619 C 338.210 44.581,338.004 44.550,337.500 44.550 C 336.996 44.550,336.790 44.581,337.042 44.619 M241.113 45.187 C 241.058 45.397,241.048 45.603,241.090 45.645 C 241.132 45.688,241.174 45.616,241.183 45.486 C 241.192 45.356,241.260 45.438,241.333 45.667 L 241.467 46.083 241.481 45.667 C 241.502 45.047,241.239 44.705,241.113 45.187 M269.126 47.458 C 269.206 52.316,269.265 52.775,269.299 48.792 C 269.318 46.615,269.277 44.833,269.208 44.833 C 269.140 44.833,269.103 46.014,269.126 47.458 M275.574 45.048 C 275.529 45.165,275.513 46.572,275.538 48.173 L 275.584 51.083 275.667 47.958 C 275.748 44.892,275.740 44.616,275.574 45.048 M119.429 45.595 C 119.367 45.839,119.349 46.071,119.389 46.111 C 119.428 46.150,119.510 45.982,119.571 45.738 C 119.633 45.494,119.651 45.262,119.611 45.223 C 119.572 45.183,119.490 45.351,119.429 45.595 M164.689 45.694 C 164.676 45.963,164.486 46.280,164.208 46.495 C 163.922 46.718,163.880 46.789,164.097 46.685 C 164.623 46.432,164.867 46.060,164.785 45.634 C 164.718 45.283,164.710 45.289,164.689 45.694 M318.875 45.448 C 319.035 45.490,319.298 45.490,319.458 45.448 C 319.619 45.406,319.487 45.372,319.167 45.372 C 318.846 45.372,318.715 45.406,318.875 45.448 M378.205 45.833 C 378.205 46.154,378.240 46.285,378.282 46.125 C 378.323 45.965,378.323 45.702,378.282 45.542 C 378.240 45.381,378.205 45.512,378.205 45.833 M397.208 45.448 C 397.369 45.490,397.631 45.490,397.792 45.448 C 397.952 45.406,397.821 45.372,397.500 45.372 C 397.179 45.372,397.048 45.406,397.208 45.448 M160.833 45.806 C 160.833 45.945,159.977 46.011,157.792 46.038 L 154.750 46.075 157.738 46.125 C 160.515 46.171,161.296 46.074,160.947 45.725 C 160.885 45.662,160.833 45.699,160.833 45.806 M198.551 46.095 L 198.083 46.524 198.625 46.147 C 198.923 45.940,199.167 45.747,199.167 45.719 C 199.167 45.587,198.982 45.700,198.551 46.095 M330.958 46.124 C 331.806 46.154,333.194 46.154,334.042 46.124 C 334.890 46.094,334.196 46.069,332.500 46.069 C 330.804 46.069,330.110 46.094,330.958 46.124 M345.740 50.667 C 345.740 53.188,345.763 54.219,345.791 52.958 C 345.820 51.698,345.820 49.635,345.791 48.375 C 345.763 47.115,345.740 48.146,345.740 50.667 M13.000 47.385 C 13.000 47.414,13.244 47.658,13.542 47.927 L 14.083 48.417 13.594 47.875 C 13.138 47.370,13.000 47.257,13.000 47.385 M298.039 48.000 C 298.039 48.321,298.073 48.452,298.115 48.292 C 298.157 48.131,298.157 47.869,298.115 47.708 C 298.073 47.548,298.039 47.679,298.039 48.000 M229.539 48.167 C 229.539 48.487,229.573 48.619,229.615 48.458 C 229.657 48.298,229.657 48.035,229.615 47.875 C 229.573 47.715,229.539 47.846,229.539 48.167 M309.390 48.917 C 309.391 49.650,309.420 49.929,309.456 49.537 C 309.491 49.145,309.490 48.545,309.454 48.204 C 309.419 47.863,309.390 48.183,309.390 48.917 M241.218 48.750 C 241.219 49.300,241.250 49.505,241.287 49.205 C 241.325 48.906,241.324 48.456,241.286 48.205 C 241.248 47.955,241.217 48.200,241.218 48.750 M249.039 48.333 C 249.039 48.654,249.073 48.785,249.115 48.625 C 249.157 48.465,249.157 48.202,249.115 48.042 C 249.073 47.881,249.039 48.012,249.039 48.333 M126.720 49.167 C 126.720 49.762,126.750 50.006,126.787 49.708 C 126.824 49.410,126.824 48.923,126.787 48.625 C 126.750 48.327,126.720 48.571,126.720 49.167 M303.050 49.000 C 303.050 49.504,303.081 49.710,303.119 49.458 C 303.158 49.206,303.158 48.794,303.119 48.542 C 303.081 48.290,303.050 48.496,303.050 49.000 M154.991 49.292 L 154.417 49.917 155.042 49.342 C 155.623 48.808,155.743 48.667,155.616 48.667 C 155.588 48.667,155.307 48.948,154.991 49.292 M329.740 49.208 L 329.250 49.750 329.792 49.260 C 330.297 48.804,330.410 48.667,330.281 48.667 C 330.252 48.667,330.009 48.910,329.740 49.208 M202.379 49.500 C 202.379 49.913,202.411 50.081,202.451 49.875 C 202.491 49.669,202.491 49.331,202.451 49.125 C 202.411 48.919,202.379 49.087,202.379 49.500 M144.705 49.833 C 144.705 50.154,144.740 50.285,144.782 50.125 C 144.823 49.965,144.823 49.702,144.782 49.542 C 144.740 49.381,144.705 49.512,144.705 49.833 M298.039 49.833 C 298.039 50.154,298.073 50.285,298.115 50.125 C 298.157 49.965,298.157 49.702,298.115 49.542 C 298.073 49.381,298.039 49.512,298.039 49.833 M68.500 50.552 C 68.500 50.581,68.744 50.825,69.042 51.094 L 69.583 51.583 69.094 51.042 C 68.638 50.537,68.500 50.423,68.500 50.552 M18.500 51.241 C 18.500 51.287,18.725 51.441,19.000 51.583 C 19.275 51.726,19.500 51.804,19.500 51.759 C 19.500 51.713,19.275 51.559,19.000 51.417 C 18.725 51.274,18.500 51.196,18.500 51.241 M35.167 51.500 C 34.846 51.676,34.658 51.819,34.750 51.819 C 34.842 51.819,35.179 51.676,35.500 51.500 C 35.821 51.324,36.008 51.181,35.917 51.181 C 35.825 51.181,35.487 51.324,35.167 51.500 M394.039 51.833 C 394.039 52.154,394.073 52.285,394.115 52.125 C 394.157 51.965,394.157 51.702,394.115 51.542 C 394.073 51.381,394.039 51.512,394.039 51.833 M160.444 51.778 C 160.241 51.981,160.330 52.765,160.593 53.093 C 160.839 53.401,160.842 53.397,160.660 53.023 C 160.554 52.806,160.500 52.412,160.538 52.148 C 160.615 51.627,160.611 51.611,160.444 51.778 M335.039 52.333 C 335.039 52.654,335.073 52.785,335.115 52.625 C 335.157 52.465,335.157 52.202,335.115 52.042 C 335.073 51.881,335.039 52.012,335.039 52.333 M366.367 52.200 C 366.227 52.340,366.178 53.081,366.203 54.658 L 366.239 56.917 366.291 54.678 C 366.322 53.383,366.420 52.346,366.525 52.219 C 366.753 51.945,366.636 51.931,366.367 52.200 M276.833 52.261 C 277.418 52.390,278.466 52.413,278.393 52.295 C 278.349 52.224,277.924 52.175,277.448 52.186 C 276.973 52.197,276.696 52.230,276.833 52.261 M21.231 54.333 C 21.231 55.479,21.258 55.948,21.290 55.375 C 21.323 54.802,21.323 53.865,21.290 53.292 C 21.258 52.719,21.231 53.188,21.231 54.333 M292.167 52.397 C 292.167 52.576,292.663 53.500,292.759 53.500 C 292.804 53.500,292.718 53.256,292.566 52.958 C 292.257 52.350,292.167 52.223,292.167 52.397 M23.414 60.833 L 23.417 68.750 25.083 68.759 L 26.750 68.767 25.127 68.711 L 23.503 68.655 23.457 60.786 L 23.412 52.917 23.414 60.833 M46.328 54.125 L 45.417 55.083 46.375 54.172 C 47.265 53.326,47.410 53.167,47.286 53.167 C 47.260 53.167,46.829 53.598,46.328 54.125 M8.083 54.333 C 8.441 54.700,8.772 55.000,8.818 55.000 C 8.863 55.000,8.608 54.700,8.250 54.333 C 7.892 53.967,7.562 53.667,7.516 53.667 C 7.470 53.667,7.725 53.967,8.083 54.333 M251.083 54.833 C 251.441 55.200,251.772 55.500,251.818 55.500 C 251.863 55.500,251.608 55.200,251.250 54.833 C 250.892 54.467,250.562 54.167,250.516 54.167 C 250.470 54.167,250.725 54.467,251.083 54.833 M31.238 58.000 C 31.238 60.063,31.262 60.906,31.291 59.875 C 31.320 58.844,31.320 57.156,31.291 56.125 C 31.262 55.094,31.238 55.938,31.238 58.000 M107.073 55.042 L 106.583 55.583 107.125 55.094 C 107.423 54.825,107.667 54.581,107.667 54.552 C 107.667 54.423,107.529 54.537,107.073 55.042 M307.073 55.042 L 306.583 55.583 307.125 55.094 C 307.630 54.638,307.743 54.500,307.615 54.500 C 307.586 54.500,307.342 54.744,307.073 55.042 M171.833 56.646 C 171.833 56.798,171.042 56.835,168.599 56.798 C 166.820 56.772,165.400 56.806,165.442 56.875 C 165.568 57.078,171.797 57.027,171.924 56.822 C 171.984 56.724,171.988 56.599,171.933 56.544 C 171.878 56.489,171.833 56.535,171.833 56.646 M346.500 56.646 C 346.500 56.798,345.708 56.835,343.266 56.798 C 341.487 56.772,340.066 56.806,340.109 56.875 C 340.235 57.078,346.464 57.027,346.590 56.822 C 346.651 56.724,346.655 56.599,346.600 56.544 C 346.545 56.489,346.500 56.535,346.500 56.646 M86.583 56.833 L 83.417 56.928 86.532 56.964 C 88.469 56.986,89.686 56.937,89.750 56.833 C 89.807 56.742,89.830 56.683,89.802 56.703 C 89.773 56.723,88.325 56.781,86.583 56.833 M114.645 56.879 C 114.716 56.949,116.306 56.987,118.179 56.962 L 121.583 56.916 118.050 56.833 C 116.106 56.787,114.574 56.808,114.645 56.879 M232.979 56.880 C 233.051 56.951,234.191 56.988,235.513 56.963 L 237.917 56.916 235.383 56.833 C 233.989 56.787,232.908 56.808,232.979 56.880 M241.312 56.879 C 241.383 56.950,242.823 56.987,244.512 56.962 L 247.583 56.916 244.383 56.833 C 242.623 56.787,241.241 56.808,241.312 56.879 M374.167 56.833 L 370.417 56.926 374.115 56.963 C 376.442 56.986,377.852 56.938,377.917 56.833 C 377.973 56.742,377.996 56.683,377.968 56.704 C 377.940 56.724,376.229 56.782,374.167 56.833 M185.384 56.958 C 186.282 56.988,187.707 56.988,188.550 56.957 C 189.393 56.927,188.658 56.903,186.917 56.903 C 185.175 56.903,184.485 56.928,185.384 56.958 M281.884 56.958 C 282.782 56.988,284.207 56.988,285.050 56.957 C 285.893 56.927,285.158 56.903,283.417 56.903 C 281.675 56.903,280.985 56.928,281.884 56.958 M349.458 56.958 C 350.306 56.988,351.694 56.988,352.542 56.958 C 353.390 56.927,352.696 56.903,351.000 56.903 C 349.304 56.903,348.610 56.927,349.458 56.958 M361.384 56.958 C 362.282 56.988,363.707 56.988,364.550 56.957 C 365.393 56.927,364.658 56.903,362.917 56.903 C 361.175 56.903,360.485 56.928,361.384 56.958 M99.621 57.454 C 99.917 57.490,100.442 57.491,100.788 57.455 C 101.134 57.419,100.892 57.389,100.250 57.388 C 99.608 57.387,99.325 57.417,99.621 57.454 M135.042 57.455 C 135.385 57.491,135.948 57.491,136.292 57.455 C 136.635 57.419,136.354 57.389,135.667 57.389 C 134.979 57.389,134.698 57.419,135.042 57.455 M158.955 57.454 C 159.250 57.490,159.775 57.491,160.121 57.455 C 160.467 57.419,160.225 57.389,159.583 57.388 C 158.942 57.387,158.659 57.417,158.955 57.454 M197.795 57.454 C 198.094 57.491,198.544 57.490,198.795 57.452 C 199.045 57.414,198.800 57.384,198.250 57.385 C 197.700 57.386,197.495 57.417,197.795 57.454 M257.375 57.455 C 257.719 57.491,258.281 57.491,258.625 57.455 C 258.969 57.419,258.688 57.389,258.000 57.389 C 257.313 57.389,257.031 57.419,257.375 57.455 M299.955 57.454 C 300.250 57.490,300.775 57.491,301.121 57.455 C 301.467 57.419,301.225 57.389,300.583 57.388 C 299.942 57.387,299.659 57.417,299.955 57.454 M320.377 57.453 C 320.631 57.491,321.006 57.490,321.211 57.451 C 321.416 57.411,321.208 57.380,320.750 57.381 C 320.292 57.382,320.124 57.415,320.377 57.453 M333.625 57.454 C 333.923 57.491,334.410 57.491,334.708 57.454 C 335.006 57.417,334.762 57.387,334.167 57.387 C 333.571 57.387,333.327 57.417,333.625 57.454 M384.958 57.455 C 385.348 57.490,385.985 57.490,386.375 57.455 C 386.765 57.420,386.446 57.392,385.667 57.392 C 384.887 57.392,384.569 57.420,384.958 57.455 M312.050 62.291 C 312.949 62.321,314.374 62.321,315.217 62.291 C 316.060 62.261,315.325 62.236,313.583 62.236 C 311.842 62.236,311.152 62.261,312.050 62.291 " stroke="none" fill="#cddbcf" fill-rule="evenodd"></path></g></svg>